<svg width="550" height="165" viewBox="0 0 550 165" fill="none" xmlns="http://www.w3.org/2000/svg">
<path fill-rule="evenodd" clip-rule="evenodd" d="M441.9 76.693L447.544 76.7133C449.642 72.506 448.255 55.015 448.562 48.5993C448.975 39.9464 451.962 31.9013 459.106 31.7803C476.498 31.4861 466.696 68.9684 471.059 76.6451L475.593 76.7007C479.083 76.098 477.631 68.2327 477.631 62.9029C477.631 53.2372 475.85 32.0146 488.235 31.7617C505.824 31.402 496.086 72.1805 500.147 76.241C500.868 76.8524 499.812 76.4263 501.237 76.6661C501.592 76.7255 502.376 76.7326 502.762 76.7376C503.993 76.7546 504.945 76.8718 505.955 76.4048C507.621 73.5888 506.84 57.0212 506.802 52.1918C506.743 44.6581 505.098 37.3988 502.308 32.2598C497.484 23.3744 487.04 21.4531 479.751 26.355C476.383 28.6195 476.529 30.1064 474.05 32.5343C472.566 31.5346 470.792 28.3539 468.503 26.6288C466.224 24.9114 463.533 23.9859 460.281 23.8264C452.689 23.4547 448.401 27.099 445.57 32.0129C442.465 37.4043 441.035 44.0972 440.933 52.1753C440.865 57.5622 440.183 73.2676 441.9 76.693Z" fill="white"/>
<path fill-rule="evenodd" clip-rule="evenodd" d="M520.996 68.7913L520.799 31.7429C530.616 31.7456 542.301 28.6645 542.307 50.3325C542.314 71.2258 531.094 69.0821 520.996 68.7913ZM512.938 97.139L514.1 99.1638C523.054 99.3211 520.553 100.891 520.815 76.732C529.2 76.4278 535.317 78.1997 541.489 72.8601C549.782 65.6854 548.015 58.9892 550 54.398V45.8722C548.974 43.5246 549.52 39.6225 546.574 33.904C539.942 21.0334 527.194 23.5311 514.119 23.7521C511.34 31.0923 514.966 89.6422 512.938 97.139Z" fill="white"/>
<path fill-rule="evenodd" clip-rule="evenodd" d="M318.662 65.5678C316.317 64.286 306.378 65.3737 302.863 65.1367C298.102 64.815 295.683 60.7588 295.051 55.5166C299.052 55.3389 316.632 56.2452 318.626 55.0684C320.662 53.3071 320.43 48.2858 318.828 45.8943C316.3 44.9259 299.191 45.528 295.128 45.4901C295.176 42.5398 296.966 39.3933 298.296 37.9393C301.298 34.658 310.866 36.0415 316.674 35.8925C321.328 35.7732 320.067 29.0286 319.61 27.7352C318.589 24.8465 314.346 25.8606 311.525 25.8606C303.231 25.8606 294.296 24.417 288.741 35.0182C283.035 45.908 284.991 64.4702 292.489 70.9877C297.889 75.6812 301.397 75.0735 309.164 75.0735C317.181 75.0741 320.173 76.9404 320.055 69.9032C320.011 67.311 319.689 66.4658 318.662 65.5678Z" fill="white"/>
<path fill-rule="evenodd" clip-rule="evenodd" d="M178.744 45.4113C178.934 42.8834 180.662 39.2348 181.833 37.9678C183.723 35.9221 186.283 35.8402 189.531 35.8545C200.863 35.9035 204.094 37.4971 203.803 30.3048C203.598 25.2385 201.958 25.8253 198.194 25.8533C188.417 25.9275 181.406 24.4082 174.882 31.5965C165.059 42.4199 167.289 72.2424 183.749 74.8848C186.937 75.3967 199.297 75.4039 202.492 74.9156C204.157 72.1523 204.279 68.089 202.462 65.3686C197.935 64.4876 191.255 65.5094 186.411 65.131C182.072 64.7918 179.362 60.5289 178.746 55.4791L202.411 55.2541C204.391 52.2032 204.259 49.0225 202.532 45.5268L178.744 45.4113Z" fill="white"/>
<path fill-rule="evenodd" clip-rule="evenodd" d="M426.975 68.7318C416.838 68.7582 405.354 71.8559 405.469 49.8649C405.582 28.2745 417.27 31.839 426.99 31.7235L426.975 68.7318ZM403.859 29.5184C402.858 31.779 401.277 33.5157 400.118 36.4186C399.112 38.9389 398.35 42.059 398.05 45.1556C397.18 54.1241 398.465 57.3085 400.07 64.6015C401.164 65.8668 402.097 69.274 405.03 71.9273C407.02 73.7277 409.234 75.4511 412.415 76.2381C415.11 76.9046 430.718 77.1003 433.683 76.5872C435.498 72.6747 434.593 56.0075 434.593 50.3319C434.593 43.9754 435.365 28.7199 433.768 23.9533C430.008 23.2747 420.386 23.6432 416.188 23.7895C408.438 24.0595 406.659 28.3312 403.859 29.5184Z" fill="white"/>
<path fill-rule="evenodd" clip-rule="evenodd" d="M210.091 74.8469L216.711 75.0668C219.123 71.2433 218.088 57.7733 218.104 51.7287C218.122 44.3781 219.689 35.8919 226.131 35.8732C232.652 35.854 234.145 44.3242 234.172 51.7287C234.195 57.8415 233.149 71.1201 235.566 74.9316L242.179 75.025C244.374 71.1928 243.501 63.8553 243.499 58.7125C243.497 53.5665 243.545 46.9198 242.438 42.2208C240.233 32.8526 235.569 25.8721 226.129 25.8737C216.732 25.8754 211.995 32.8075 209.866 42.2582C208.669 47.5736 208.771 53.1041 208.772 58.7125C208.773 63.952 207.966 71.0795 210.091 74.8469Z" fill="white"/>
<path fill-rule="evenodd" clip-rule="evenodd" d="M257.006 6.10107H251.025C248.573 10.3529 249.305 12.1033 249.306 18.2062C249.306 22.8623 249.306 27.5178 249.306 32.1738C249.306 48.2702 246.734 66.7604 260.6 73.7931C263.943 75.489 278.628 75.7134 282.687 74.8616C284.474 72.0702 284.651 68.1966 282.651 65.4318C275.696 63.5626 265.126 68.0806 261.222 61.8838C257.577 56.0971 258.493 43.8935 258.643 35.8786L267.282 35.6674C269.454 33.0493 269.042 28.9486 267.566 25.9379L258.623 25.8345C258.612 22.2046 259.1 10.1495 257.926 7.60227C257.789 7.30647 257.568 6.96935 257.406 6.69878L257.006 6.10107Z" fill="white"/>
<path fill-rule="evenodd" clip-rule="evenodd" d="M167.091 74.9337C168.892 71.4143 169.153 68.882 167.064 65.3593C158.717 63.7937 150.154 67.7827 145.806 62.0307C141.856 56.806 142.163 45.2128 145.353 39.4937C149.135 32.7134 159.389 37.436 166.26 35.7819C169.227 35.0681 169.119 27.2308 166.795 26.0755C165.484 25.4228 157.004 25.8616 154.902 25.8605C145.777 25.8544 142.04 27.7808 137.821 33.8495C131.739 42.6002 131.095 66.1511 144.141 73.3066C148.576 75.7388 161.534 75.6547 167.091 74.9337Z" fill="white"/>
<path fill-rule="evenodd" clip-rule="evenodd" d="M376.571 65.9031C370.572 61.5131 370.352 44.8674 374.201 37.4178C379.325 27.5046 390.024 33.6322 400.098 31.624L400.762 27.9858L399.999 23.8845C392.402 23.1389 378.837 22.8711 373.514 26.8282C361.166 36.0079 360.194 63.4411 373.536 73.8267C378.547 77.7266 392.624 77.1723 399.904 76.6675C400.981 74.3497 400.786 71.4148 400.089 68.9072C392.742 68.2863 380.624 70.376 377.112 66.8016C376.517 66.1956 376.733 66.5024 376.571 65.9031Z" fill="white"/>
<path fill-rule="evenodd" clip-rule="evenodd" d="M335.198 51.2629C335.198 33.997 342.621 35.8567 350.484 35.8567C357.449 35.8561 360.471 37.315 360.649 31.2396C360.872 23.64 355.525 25.8528 344.974 25.8622C331.726 25.8737 325.973 36.0805 325.973 52.1945C325.973 59.1211 325.069 70.9871 327.289 75.008C333.659 75.1224 335.187 76.1315 335.194 68.9551L335.198 51.2629Z" fill="white"/>
<path fill-rule="evenodd" clip-rule="evenodd" d="M168.751 117.369L177.572 90.1659H180.917L190.277 117.369H186.815L184.155 109.124H174.473L171.979 117.369H168.751ZM175.367 106.199H183.202L180.804 98.6574C180.082 96.3651 179.536 94.4719 179.156 92.9774C178.84 94.7504 178.417 96.4918 177.888 98.2141L175.367 106.199ZM191.214 111.48L194.008 110.948C194.163 112.271 194.602 113.285 195.319 113.994C196.036 114.697 197.043 115.051 198.327 115.051C199.627 115.051 200.591 114.741 201.222 114.114C201.849 113.494 202.164 112.759 202.164 111.917C202.164 111.163 201.881 110.568 201.319 110.137C200.923 109.84 199.959 109.466 198.429 109.004C196.363 108.39 194.934 107.858 194.131 107.408C193.334 106.953 192.729 106.332 192.317 105.534C191.905 104.743 191.696 103.862 191.696 102.9C191.696 102.02 191.867 101.209 192.204 100.462C192.547 99.7148 193.007 99.0942 193.59 98.6004C194.029 98.2205 194.629 97.8976 195.383 97.6315C196.144 97.3656 196.952 97.2326 197.819 97.2326C199.124 97.2326 200.27 97.4541 201.255 97.9038C202.245 98.3472 202.973 98.9549 203.444 99.7148C203.909 100.481 204.236 101.5 204.412 102.78L201.651 103.236C201.528 102.21 201.164 101.406 200.564 100.829C199.965 100.253 199.119 99.9681 198.022 99.9681C196.732 99.9681 195.806 100.221 195.255 100.728C194.704 101.235 194.425 101.83 194.425 102.507C194.425 102.938 194.538 103.331 194.768 103.679C194.998 104.033 195.357 104.331 195.849 104.565C196.133 104.692 196.957 104.977 198.338 105.42C200.329 106.047 201.72 106.566 202.512 106.965C203.304 107.364 203.925 107.953 204.375 108.713C204.83 109.479 205.055 110.429 205.055 111.569C205.055 112.677 204.782 113.722 204.23 114.703C203.679 115.685 202.887 116.444 201.854 116.983C200.816 117.521 199.644 117.787 198.338 117.787C196.176 117.787 194.522 117.255 193.387 116.197C192.252 115.134 191.53 113.563 191.214 111.48ZM207.271 111.48L210.064 110.948C210.219 112.271 210.658 113.285 211.375 113.994C212.093 114.697 213.099 115.051 214.383 115.051C215.684 115.051 216.647 114.741 217.279 114.114C217.905 113.494 218.221 112.759 218.221 111.917C218.221 111.163 217.937 110.568 217.375 110.137C216.979 109.84 216.016 109.466 214.485 109.004C212.419 108.39 210.99 107.858 210.187 107.408C209.39 106.953 208.785 106.332 208.373 105.534C207.961 104.743 207.752 103.862 207.752 102.9C207.752 102.02 207.923 101.209 208.26 100.462C208.603 99.7148 209.063 99.0942 209.647 98.6004C210.086 98.2205 210.685 97.8976 211.44 97.6315C212.2 97.3656 213.008 97.2326 213.875 97.2326C215.181 97.2326 216.326 97.4541 217.311 97.9038C218.301 98.3472 219.029 98.9549 219.5 99.7148C219.965 100.481 220.292 101.5 220.468 102.78L217.707 103.236C217.584 102.21 217.22 101.406 216.621 100.829C216.021 100.253 215.176 99.9681 214.078 99.9681C212.788 99.9681 211.863 100.221 211.311 100.728C210.76 101.235 210.482 101.83 210.482 102.507C210.482 102.938 210.594 103.331 210.824 103.679C211.054 104.033 211.413 104.331 211.905 104.565C212.189 104.692 213.013 104.977 214.394 105.42C216.385 106.047 217.777 106.566 218.569 106.965C219.361 107.364 219.982 107.953 220.431 108.713C220.886 109.479 221.111 110.429 221.111 111.569C221.111 112.677 220.838 113.722 220.287 114.703C219.735 115.685 218.943 116.444 217.91 116.983C216.872 117.521 215.7 117.787 214.394 117.787C212.232 117.787 210.578 117.255 209.443 116.197C208.309 115.134 207.586 113.563 207.271 111.48ZM235.818 110.986L238.741 111.442C238.286 113.449 237.435 115.013 236.193 116.121C234.951 117.23 233.367 117.787 231.435 117.787C229.005 117.787 227.079 116.9 225.655 115.127C224.231 113.361 223.519 110.872 223.519 107.674C223.519 104.369 224.237 101.798 225.676 99.9745C227.116 98.1446 228.984 97.2326 231.28 97.2326C233.501 97.2326 235.315 98.1254 236.723 99.9174C238.131 101.709 238.837 104.23 238.837 107.478C238.837 107.674 238.832 107.972 238.821 108.365H226.41C226.516 110.524 227.03 112.183 227.962 113.329C228.887 114.475 230.049 115.051 231.435 115.051C232.468 115.051 233.351 114.728 234.079 114.082C234.812 113.437 235.39 112.404 235.818 110.986ZM226.57 105.629H235.85C235.727 103.97 235.369 102.729 234.785 101.899C233.892 100.614 232.725 99.9681 231.296 99.9681C230.001 99.9681 228.914 100.481 228.031 101.507C227.153 102.533 226.666 103.907 226.57 105.629ZM241.187 111.48L243.98 110.948C244.136 112.271 244.574 113.285 245.292 113.994C246.009 114.697 247.015 115.051 248.299 115.051C249.6 115.051 250.563 114.741 251.195 114.114C251.821 113.494 252.137 112.759 252.137 111.917C252.137 111.163 251.853 110.568 251.291 110.137C250.895 109.84 249.932 109.466 248.401 109.004C246.335 108.39 244.906 107.858 244.103 107.408C243.306 106.953 242.701 106.332 242.289 105.534C241.877 104.743 241.668 103.862 241.668 102.9C241.668 102.02 241.839 101.209 242.177 100.462C242.519 99.7148 242.979 99.0942 243.563 98.6004C244.002 98.2205 244.601 97.8976 245.356 97.6315C246.116 97.3656 246.924 97.2326 247.791 97.2326C249.097 97.2326 250.242 97.4541 251.227 97.9038C252.217 98.3472 252.945 98.9549 253.416 99.7148C253.882 100.481 254.208 101.5 254.385 102.78L251.623 103.236C251.5 102.21 251.136 101.406 250.537 100.829C249.937 100.253 249.092 99.9681 247.994 99.9681C246.704 99.9681 245.779 100.221 245.227 100.728C244.676 101.235 244.398 101.83 244.398 102.507C244.398 102.938 244.51 103.331 244.74 103.679C244.971 104.033 245.329 104.331 245.822 104.565C246.105 104.692 246.929 104.977 248.31 105.42C250.301 106.047 251.693 106.566 252.485 106.965C253.277 107.364 253.898 107.953 254.347 108.713C254.802 109.479 255.027 110.429 255.027 111.569C255.027 112.677 254.754 113.722 254.203 114.703C253.652 115.685 252.859 116.444 251.826 116.983C250.788 117.521 249.616 117.787 248.31 117.787C246.148 117.787 244.494 117.255 243.36 116.197C242.225 115.134 241.502 113.563 241.187 111.48ZM257.243 111.48L260.037 110.948C260.192 112.271 260.631 113.285 261.348 113.994C262.065 114.697 263.071 115.051 264.356 115.051C265.656 115.051 266.62 114.741 267.251 114.114C267.878 113.494 268.193 112.759 268.193 111.917C268.193 111.163 267.91 110.568 267.348 110.137C266.952 109.84 265.988 109.466 264.457 109.004C262.391 108.39 260.962 107.858 260.16 107.408C259.362 106.953 258.757 106.332 258.345 105.534C257.933 104.743 257.725 103.862 257.725 102.9C257.725 102.02 257.896 101.209 258.233 100.462C258.576 99.7148 259.036 99.0942 259.619 98.6004C260.058 98.2205 260.658 97.8976 261.412 97.6315C262.172 97.3656 262.98 97.2326 263.847 97.2326C265.153 97.2326 266.299 97.4541 267.283 97.9038C268.274 98.3472 269.001 98.9549 269.472 99.7148C269.938 100.481 270.264 101.5 270.441 102.78L267.679 103.236C267.556 102.21 267.192 101.406 266.593 100.829C265.993 100.253 265.148 99.9681 264.051 99.9681C262.761 99.9681 261.835 100.221 261.284 100.728C260.732 101.235 260.454 101.83 260.454 102.507C260.454 102.938 260.566 103.331 260.797 103.679C261.027 104.033 261.385 104.331 261.878 104.565C262.161 104.692 262.986 104.977 264.367 105.42C266.357 106.047 267.749 106.566 268.541 106.965C269.333 107.364 269.954 107.953 270.404 108.713C270.858 109.479 271.083 110.429 271.083 111.569C271.083 112.677 270.81 113.722 270.259 114.703C269.708 115.685 268.916 116.444 267.883 116.983C266.845 117.521 265.672 117.787 264.367 117.787C262.204 117.787 260.55 117.255 259.416 116.197C258.281 115.134 257.559 113.563 257.243 111.48ZM273.363 107.51C273.363 103.869 274.22 101.171 275.938 99.4171C277.367 97.9608 279.117 97.2326 281.177 97.2326C283.463 97.2326 285.336 98.1193 286.792 99.8921C288.242 101.659 288.97 104.109 288.97 107.231C288.97 109.764 288.649 111.752 288.007 113.202C287.364 114.652 286.428 115.78 285.197 116.584C283.971 117.388 282.628 117.787 281.177 117.787C278.844 117.787 276.96 116.907 275.52 115.14C274.08 113.373 273.363 110.828 273.363 107.51ZM276.254 107.516C276.254 110.037 276.719 111.924 277.65 113.171C278.587 114.425 279.759 115.052 281.177 115.052C282.58 115.052 283.746 114.425 284.683 113.165C285.614 111.905 286.08 109.986 286.08 107.409C286.08 104.977 285.609 103.135 284.672 101.887C283.736 100.633 282.569 100.007 281.177 100.007C279.759 100.007 278.587 100.627 277.65 101.874C276.719 103.122 276.254 105.003 276.254 107.516ZM292.251 117.369V97.6511H294.788V100.671C295.435 99.2719 296.035 98.3476 296.586 97.9042C297.137 97.4545 297.742 97.2329 298.4 97.2329C299.353 97.2329 300.322 97.5876 301.307 98.2906L300.3 101.374C299.615 100.918 298.93 100.69 298.245 100.69C297.63 100.69 297.078 100.912 296.591 101.349C296.104 101.786 295.756 102.394 295.548 103.173C295.232 104.357 295.077 105.655 295.077 107.067V117.369H292.251ZM302.976 93.9656V90.1663H305.802V93.9656H302.976ZM302.976 117.369V97.6511H305.802V117.369H302.976ZM320.997 114.9C319.948 115.957 318.936 116.698 317.967 117.135C316.999 117.572 315.96 117.787 314.847 117.787C313.017 117.787 311.609 117.262 310.624 116.204C309.64 115.153 309.147 113.804 309.147 112.164C309.147 111.202 309.335 110.322 309.704 109.524C310.078 108.726 310.566 108.093 311.165 107.611C311.77 107.13 312.444 106.763 313.199 106.516C313.755 106.345 314.596 106.18 315.714 106.016C317.994 105.699 319.68 105.313 320.756 104.87C320.767 104.414 320.772 104.122 320.772 104.002C320.772 102.647 320.504 101.691 319.969 101.134C319.247 100.38 318.171 100.007 316.747 100.007C315.415 100.007 314.43 100.285 313.798 100.836C313.161 101.387 312.696 102.362 312.391 103.768L309.629 103.312C309.881 101.913 310.293 100.779 310.871 99.9178C311.449 99.0567 312.283 98.398 313.375 97.9295C314.462 97.4673 315.73 97.2329 317.165 97.2329C318.588 97.2329 319.75 97.4295 320.644 97.8281C321.532 98.227 322.19 98.7209 322.608 99.3226C323.025 99.9242 323.319 100.684 323.491 101.602C323.582 102.172 323.63 103.198 323.63 104.673V109.106C323.63 112.202 323.689 114.159 323.807 114.988C323.919 115.818 324.154 116.61 324.497 117.369H321.543C321.259 116.666 321.077 115.843 320.997 114.9ZM320.772 107.491C319.744 107.985 318.203 108.403 316.148 108.745C314.981 108.941 314.157 109.163 313.675 109.41C313.193 109.657 312.824 110.018 312.562 110.486C312.3 110.961 312.166 111.487 312.166 112.069C312.166 112.949 312.449 113.69 313.022 114.279C313.595 114.868 314.43 115.166 315.527 115.166C316.613 115.166 317.582 114.887 318.433 114.324C319.279 113.766 319.905 113 320.301 112.031C320.606 111.278 320.756 110.17 320.756 108.707L320.772 107.491ZM348.26 110.986L351.183 111.442C350.727 113.45 349.877 115.014 348.635 116.122C347.393 117.23 345.809 117.787 343.877 117.787C341.447 117.787 339.52 116.901 338.097 115.128C336.673 113.361 335.961 110.873 335.961 107.675C335.961 104.369 336.678 101.798 338.118 99.9748C339.558 98.145 341.426 97.2329 343.722 97.2329C345.943 97.2329 347.757 98.1258 349.165 99.9178C350.572 101.71 351.279 104.23 351.279 107.479C351.279 107.675 351.274 107.972 351.263 108.365H338.851C338.958 110.524 339.472 112.183 340.404 113.329C341.329 114.476 342.491 115.052 343.877 115.052C344.91 115.052 345.793 114.729 346.521 114.083C347.254 113.437 347.832 112.405 348.26 110.986ZM339.012 105.629H348.292C348.169 103.97 347.811 102.729 347.227 101.9C346.334 100.614 345.167 99.9685 343.738 99.9685C342.442 99.9685 341.356 100.482 340.473 101.507C339.595 102.533 339.108 103.907 339.012 105.629ZM354.752 117.369V97.6511H357.289V100.437C357.808 99.4746 358.504 98.6956 359.371 98.1132C360.238 97.5244 361.223 97.2329 362.331 97.2329C363.562 97.2329 364.573 97.5369 365.36 98.1386C366.147 98.7463 366.704 99.5887 367.025 100.678C368.352 98.3791 370.07 97.2329 372.189 97.2329C373.849 97.2329 375.128 97.7714 376.016 98.8541C376.91 99.9367 377.359 101.602 377.359 103.85V117.369H374.534V104.958C374.534 103.629 374.437 102.666 374.255 102.077C374.073 101.488 373.742 101.02 373.254 100.659C372.773 100.298 372.205 100.12 371.558 100.12C370.38 100.12 369.406 100.583 368.63 101.501C367.854 102.425 367.469 103.901 367.469 105.927V117.369H364.643V104.572C364.643 103.09 364.413 101.976 363.952 101.235C363.492 100.494 362.738 100.12 361.694 100.12C360.902 100.12 360.169 100.367 359.494 100.861C358.82 101.355 358.333 102.077 358.028 103.033C357.728 103.983 357.578 105.357 357.578 107.149V117.369H354.752ZM396.043 117.369V93.3578H388.465V90.1663H406.673V93.3578H399.094V117.369H396.043ZM408.235 117.369V97.6511H410.773V100.671C411.42 99.2719 412.019 98.3476 412.571 97.9042C413.122 97.4545 413.727 97.2329 414.385 97.2329C415.338 97.2329 416.307 97.5876 417.291 98.2906L416.285 101.374C415.6 100.918 414.915 100.69 414.23 100.69C413.614 100.69 413.063 100.912 412.576 101.349C412.089 101.786 411.741 102.394 411.532 103.173C411.217 104.357 411.062 105.655 411.062 107.067V117.369H408.235ZM429.847 114.9C428.798 115.957 427.787 116.698 426.818 117.135C425.849 117.572 424.811 117.787 423.698 117.787C421.867 117.787 420.46 117.262 419.475 116.204C418.49 115.153 417.998 113.804 417.998 112.164C417.998 111.202 418.185 110.322 418.554 109.524C418.929 108.726 419.416 108.093 420.015 107.611C420.62 107.13 421.295 106.763 422.049 106.516C422.606 106.345 423.446 106.18 424.565 106.016C426.845 105.699 428.531 105.313 429.606 104.87C429.617 104.414 429.622 104.122 429.622 104.002C429.622 102.647 429.355 101.691 428.82 101.134C428.097 100.38 427.021 100.007 425.598 100.007C424.265 100.007 423.28 100.285 422.649 100.836C422.012 101.387 421.546 102.362 421.241 103.768L418.479 103.312C418.731 101.913 419.143 100.779 419.721 99.9178C420.299 99.0567 421.134 98.398 422.226 97.9295C423.312 97.4673 424.581 97.2329 426.015 97.2329C427.439 97.2329 428.6 97.4295 429.494 97.8281C430.382 98.227 431.041 98.7209 431.458 99.3226C431.875 99.9242 432.17 100.684 432.341 101.602C432.432 102.172 432.48 103.198 432.48 104.673V109.106C432.48 112.202 432.539 114.159 432.657 114.988C432.769 115.818 433.005 116.61 433.347 117.369H430.393C430.109 116.666 429.927 115.843 429.847 114.9ZM429.622 107.491C428.595 107.985 427.053 108.403 424.998 108.745C423.831 108.941 423.007 109.163 422.525 109.41C422.044 109.657 421.675 110.018 421.412 110.486C421.15 110.961 421.016 111.487 421.016 112.069C421.016 112.949 421.3 113.69 421.873 114.279C422.445 114.868 423.28 115.166 424.377 115.166C425.464 115.166 426.433 114.887 427.283 114.324C428.129 113.766 428.755 113 429.151 112.031C429.457 111.278 429.606 110.17 429.606 108.707L429.622 107.491ZM425.705 92.0661L423.954 95.2195H420.743L424.099 90.0143H427.086L430.666 95.2195H427.455L425.705 92.0661ZM436.821 117.369V97.6511H439.358V100.45C440.578 98.3031 442.344 97.2329 444.651 97.2329C445.657 97.2329 446.578 97.4484 447.418 97.8727C448.258 98.2969 448.89 98.8604 449.307 99.5506C449.725 100.241 450.019 101.064 450.185 102.014C450.287 102.634 450.34 103.717 450.34 105.262V117.369H447.514V105.389C447.514 104.028 447.407 103.008 447.188 102.337C446.968 101.666 446.578 101.127 446.021 100.722C445.465 100.323 444.806 100.12 444.057 100.12C442.858 100.12 441.825 100.57 440.953 101.475C440.08 102.375 439.647 104.091 439.647 106.611V117.369H436.821ZM453.557 111.48L456.351 110.949C456.506 112.272 456.945 113.285 457.662 113.994C458.379 114.697 459.385 115.052 460.67 115.052C461.97 115.052 462.934 114.742 463.565 114.115C464.192 113.494 464.507 112.76 464.507 111.917C464.507 111.164 464.224 110.569 463.662 110.138C463.266 109.84 462.302 109.467 460.772 109.005C458.706 108.39 457.277 107.858 456.474 107.409C455.676 106.953 455.072 106.332 454.66 105.535C454.247 104.743 454.039 103.863 454.039 102.9C454.039 102.02 454.21 101.21 454.547 100.462C454.89 99.7151 455.35 99.0945 455.933 98.6007C456.372 98.2209 456.972 97.898 457.726 97.6319C458.486 97.3659 459.294 97.2329 460.161 97.2329C461.467 97.2329 462.613 97.4545 463.597 97.9042C464.588 98.3476 465.315 98.9553 465.786 99.7151C466.252 100.482 466.579 101.501 466.755 102.78L463.993 103.236C463.87 102.21 463.506 101.406 462.907 100.83C462.307 100.254 461.462 99.9685 460.365 99.9685C459.075 99.9685 458.149 100.222 457.598 100.728C457.046 101.235 456.768 101.83 456.768 102.508C456.768 102.938 456.881 103.331 457.111 103.679C457.341 104.034 457.699 104.331 458.192 104.566C458.475 104.692 459.3 104.977 460.681 105.42C462.671 106.047 464.063 106.567 464.855 106.965C465.647 107.365 466.268 107.953 466.718 108.713C467.172 109.479 467.397 110.429 467.397 111.569C467.397 112.677 467.124 113.722 466.573 114.703C466.022 115.685 465.23 116.445 464.197 116.983C463.159 117.521 461.986 117.787 460.681 117.787C458.518 117.787 456.865 117.255 455.73 116.198C454.595 115.134 453.873 113.564 453.557 111.48ZM470.737 93.9656V90.1663H473.563V93.9656H470.737ZM470.737 117.369V97.6511H473.563V117.369H470.737ZM484.005 114.387L484.39 117.338C483.598 117.534 482.886 117.635 482.265 117.635C481.243 117.635 480.451 117.445 479.884 117.059C479.322 116.673 478.926 116.172 478.696 115.545C478.466 114.919 478.353 113.602 478.353 111.594V100.234H476.266V97.6511H478.353V92.7752L481.179 90.7679V97.6511H484.005V100.234H481.179V111.784C481.179 112.741 481.227 113.355 481.329 113.627C481.425 113.899 481.586 114.115 481.811 114.279C482.035 114.437 482.356 114.52 482.774 114.52C483.084 114.52 483.496 114.476 484.005 114.387ZM485.734 107.51C485.734 103.869 486.59 101.172 488.308 99.4175C489.737 97.9612 491.487 97.2329 493.548 97.2329C495.833 97.2329 497.706 98.1196 499.162 99.8925C500.612 101.659 501.34 104.11 501.34 107.232C501.34 109.764 501.019 111.753 500.377 113.203C499.735 114.653 498.798 115.78 497.567 116.584C496.341 117.388 494.998 117.787 493.548 117.787C491.214 117.787 489.33 116.907 487.891 115.14C486.451 113.374 485.734 110.828 485.734 107.51ZM488.624 107.517C488.624 110.037 489.089 111.924 490.021 113.171C490.957 114.425 492.129 115.052 493.548 115.052C494.95 115.052 496.117 114.425 497.053 113.165C497.984 111.905 498.45 109.986 498.45 107.409C498.45 104.978 497.979 103.135 497.043 101.888C496.106 100.634 494.939 100.007 493.548 100.007C492.129 100.007 490.957 100.628 490.021 101.875C489.089 103.122 488.624 105.003 488.624 107.517Z" fill="white" stroke="white" stroke-width="0.137541"/>
<path fill-rule="evenodd" clip-rule="evenodd" d="M12.6584 116.081C-25.1136 65.2224 52.114 6.23712 89.392 0.0929376C99.4883 -1.95008 102.984 30.3454 100.783 32.4752C93.7913 34.4782 87.2093 36.5831 81.0332 38.7889C79.2309 25.7141 75.979 19.1474 71.2756 19.0882C46.1644 25.6063 15.2906 50.4026 18.6779 80.6216C12.266 91.276 10.2386 103.08 12.6584 116.081Z" fill="white"/>
<path fill-rule="evenodd" clip-rule="evenodd" d="M25.0772 99.2039C21.8953 79.1914 40.8809 62.3443 82.034 48.6638C80.6287 29.0186 77.0427 19.1606 71.2752 19.0884C41.1668 26.9025 2.7626 60.993 25.0772 99.2039Z" fill="white"/>
<path fill-rule="evenodd" clip-rule="evenodd" d="M81.0324 38.7888C49.5891 50.021 28.7352 63.9065 18.6771 80.6216C15.2898 50.4026 46.1636 25.6063 71.2749 19.0881C75.9783 19.1474 79.2301 25.7141 81.0324 38.7888Z" fill="white" stroke="white" stroke-width="0.137541"/>
<path fill-rule="evenodd" clip-rule="evenodd" d="M82.9038 116.8C100.271 116.828 117.938 105.347 135.906 82.3575C140.859 81.7526 143.18 92.8586 143.501 111.559C136.525 121.666 94.9015 161.629 87.3121 139.385C85.801 134.955 82.9193 120.435 82.9038 116.8Z" fill="white"/>
<path fill-rule="evenodd" clip-rule="evenodd" d="M0 101.077C23.1212 138.764 68.0027 145.314 119.768 114.554C124.791 126.575 127.506 137.518 125.493 143.141C120.405 157.361 6.43658 201.226 0 101.077Z" fill="white"/>
<path fill-rule="evenodd" clip-rule="evenodd" d="M76.2593 150.12C40.4438 156.728 20.3501 139.07 15.9795 97.146C26.2179 117.122 44.4131 124.485 70.5636 119.234C76.9308 139.933 78.8293 150.229 76.2593 150.12Z" fill="white"/>
<path fill-rule="evenodd" clip-rule="evenodd" d="M22.2134 124.06C36.6729 133.167 54.4775 136.151 74.423 132.517C77.5902 144.333 78.2026 150.202 76.2592 150.119C49.4057 155.074 31.3894 146.387 22.2134 124.06Z" fill="#194C36" stroke="#194C36" stroke-width="0.137541"/>
<path fill-rule="evenodd" clip-rule="evenodd" d="M84.998 130.024C96.0928 126.828 107.744 121.699 119.769 114.554C122.126 120.195 123.974 125.599 125.065 130.326C110.431 142.694 92.1 153.417 87.3127 139.385C86.6782 137.525 85.8018 133.887 84.998 130.024Z" fill="#194C36"/>
</svg>
