<svg width="560" height="124" viewBox="0 0 560 124" fill="none" xmlns="http://www.w3.org/2000/svg">
<path fill-rule="evenodd" clip-rule="evenodd" d="M139.717 123.814C137.762 123.811 135.888 123.036 134.507 121.66C133.125 120.283 132.348 118.416 132.347 116.47V42.5376C132.347 40.5906 133.123 38.7233 134.505 37.3462C135.887 35.9691 137.762 35.1948 139.717 35.1936H161.33C161.839 35.1936 199.088 35.0681 199.088 79.5036C199.088 123.939 161.839 123.814 161.33 123.814H139.717ZM147.217 109H161.326C165.532 108.785 169.608 107.475 173.148 105.203C180.522 100.517 184.204 91.7838 184.204 79.5036C184.204 66.9538 180.391 58.234 172.639 53.5534C169.214 51.4718 165.33 50.2544 161.326 50.007H147.217V109Z" fill="white"/>
<path fill-rule="evenodd" clip-rule="evenodd" d="M274.981 113.687C275.417 114.806 275.575 116.014 275.441 117.207C275.307 118.4 274.884 119.543 274.21 120.538C273.536 121.533 272.63 122.351 271.57 122.922C270.509 123.493 269.325 123.799 268.12 123.815C266.636 123.811 265.187 123.362 263.963 122.526C262.738 121.691 261.795 120.507 261.255 119.13L255.654 105.33H221.206L215.605 119.13C214.985 120.728 213.823 122.06 212.32 122.894C210.817 123.728 209.069 124.012 207.378 123.696C205.687 123.38 204.16 122.485 203.063 121.165C201.965 119.845 201.367 118.185 201.37 116.471C201.341 115.517 201.512 114.567 201.874 113.683L231.497 39.876C232.053 38.499 233.01 37.3192 234.244 36.4883C235.479 35.6574 236.935 35.2134 238.425 35.2134C239.916 35.2134 241.372 35.6574 242.606 36.4883C243.841 37.3192 244.798 38.499 245.354 39.876L274.972 113.683L274.981 113.687ZM249.685 90.6467L238.484 62.4144L227.17 90.6467H249.685Z" fill="white"/>
<path fill-rule="evenodd" clip-rule="evenodd" d="M341.973 112.548C342.716 113.723 343.112 115.083 343.116 116.471C343.105 117.722 342.772 118.949 342.149 120.035C341.527 121.121 340.635 122.031 339.56 122.676C338.424 123.414 337.098 123.809 335.742 123.815C334.482 123.818 333.24 123.506 332.131 122.91C331.022 122.313 330.08 121.45 329.39 120.399L312.99 94.3186H300.528V116.476C300.504 118.438 299.702 120.311 298.297 121.686C296.892 123.062 294.998 123.829 293.028 123.82C291.073 123.819 289.198 123.045 287.815 121.668C286.433 120.291 285.655 118.423 285.654 116.476V42.5393C285.655 40.5919 286.433 38.7246 287.815 37.3476C289.198 35.9706 291.073 35.1965 293.028 35.1953H313.237C318.265 35.3494 323.204 36.5561 327.733 38.7371C332.569 41.0881 336.605 44.8004 339.343 49.4139C342.081 54.0274 343.399 59.3394 343.135 64.6919C342.987 69.6915 341.775 74.6028 339.579 79.1009C337.132 84.0351 333.222 88.1013 328.377 90.7489L341.978 112.525L341.973 112.548ZM300.528 79.5053H313.242C315.809 79.7884 318.403 79.3011 320.691 78.1061C322.978 76.911 324.856 75.0627 326.081 72.7981C327.373 70.282 328.11 67.5197 328.242 64.6966C328.512 62.096 327.974 59.4757 326.701 57.1892C325.428 54.9027 323.482 53.0599 321.125 51.9097C318.657 50.7404 315.973 50.0931 313.242 50.0087H300.528V79.5053Z" fill="white"/>
<path fill-rule="evenodd" clip-rule="evenodd" d="M458.167 42.6647C458.184 43.6187 458.011 44.5667 457.658 45.4536L426.64 119.26C426.091 120.608 425.15 121.762 423.938 122.575C422.726 123.388 421.299 123.822 419.838 123.822C418.377 123.822 416.949 123.388 415.737 122.575C414.526 121.762 413.585 120.608 413.035 119.26L403.234 95.8386L393.321 119.26C392.771 120.607 391.83 121.759 390.619 122.571C389.408 123.382 387.981 123.816 386.521 123.816C385.061 123.816 383.635 123.382 382.423 122.571C381.212 121.759 380.271 120.607 379.721 119.26L348.703 45.4536C348.35 44.5665 348.177 43.6187 348.194 42.6647C348.197 40.6845 348.988 38.7861 350.394 37.3858C351.8 35.9855 353.706 35.1978 355.694 35.1953C357.145 35.2023 358.561 35.6399 359.76 36.4522C360.96 37.2644 361.889 38.4143 362.429 39.7551L386.582 97.2283L395.095 76.591L382.129 45.4489C381.726 44.5305 381.51 43.5415 381.495 42.5393C381.498 41.5653 381.696 40.6016 382.075 39.704C382.455 38.8064 383.01 37.9927 383.707 37.3098C384.405 36.627 385.231 36.0886 386.138 35.7256C387.046 35.3627 388.017 35.1824 388.995 35.1953C390.465 35.1131 391.921 35.5151 393.139 36.3392C394.357 37.1632 395.269 38.3636 395.734 39.7551L403.23 57.4781L410.604 39.7551C411.143 38.4139 412.072 37.2636 413.272 36.4513C414.472 35.639 415.888 35.2017 417.338 35.1953C419.327 35.1978 421.233 35.9855 422.639 37.3858C424.045 38.7861 424.836 40.6845 424.839 42.6647C424.855 43.6186 424.682 44.5663 424.33 45.4536L411.234 76.5956L419.877 97.233L443.904 39.7597C444.444 38.4182 445.374 37.2678 446.575 36.4555C447.775 35.6432 449.192 35.2061 450.643 35.2C451.65 35.2144 452.643 35.4293 453.565 35.8321C454.937 36.372 456.112 37.3146 456.934 38.5349C457.756 39.7552 458.186 41.1955 458.167 42.6647Z" fill="white"/>
<path fill-rule="evenodd" clip-rule="evenodd" d="M468.341 116.471V42.5392C468.317 41.5595 468.489 40.5848 468.848 39.6725C469.208 38.7602 469.747 37.9288 470.434 37.2272C471.121 36.5256 471.942 35.968 472.849 35.5873C473.755 35.2066 474.729 35.0105 475.713 35.0105C476.697 35.0105 477.671 35.2066 478.578 35.5873C479.485 35.968 480.306 36.5256 480.993 37.2272C481.68 37.9288 482.219 38.7602 482.578 39.6725C482.937 40.5848 483.11 41.5595 483.085 42.5392V116.471C483.11 117.451 482.937 118.426 482.578 119.338C482.219 120.25 481.68 121.082 480.993 121.783C480.306 122.485 479.485 123.042 478.578 123.423C477.671 123.804 476.697 124 475.713 124C474.729 124 473.755 123.804 472.849 123.423C471.942 123.042 471.121 122.485 470.434 121.783C469.747 121.082 469.208 120.25 468.848 119.338C468.489 118.426 468.317 117.451 468.341 116.471Z" fill="white"/>
<path fill-rule="evenodd" clip-rule="evenodd" d="M546.521 120.65L508.129 65.9562V116.471C508.105 118.433 507.302 120.306 505.898 121.681C504.493 123.057 502.599 123.824 500.629 123.815C498.674 123.813 496.801 123.038 495.419 121.661C494.037 120.284 493.261 118.418 493.26 116.471V42.5393C493.263 41.5653 493.461 40.6016 493.84 39.704C494.22 38.8065 494.775 37.9927 495.472 37.3099C496.169 36.627 496.996 36.0886 497.903 35.7256C498.811 35.3627 499.782 35.1824 500.76 35.1953C501.938 35.2039 503.097 35.4963 504.137 36.0475C505.177 36.5987 506.068 37.3923 506.734 38.3607L545.126 93.0544V42.5393C545.126 40.5749 545.909 38.691 547.304 37.302C548.699 35.913 550.59 35.1326 552.563 35.1326C554.535 35.1326 556.427 35.913 557.822 37.302C559.216 38.691 560 40.5749 560 42.5393V116.471C559.976 118.412 559.191 120.266 557.813 121.638C556.436 123.01 554.574 123.791 552.626 123.815C551.427 123.822 550.244 123.538 549.18 122.986C548.116 122.434 547.203 121.632 546.521 120.65Z" fill="white"/>
<path fill-rule="evenodd" clip-rule="evenodd" d="M88.0371 123.815H7.66385C5.6111 123.794 3.6507 122.962 2.21363 121.502C0.776558 120.043 -0.0195407 118.074 0.000364488 116.03V47.401C-0.0195407 45.3566 0.776558 43.3881 2.21363 41.9282C3.6507 40.4682 5.6111 39.6363 7.66385 39.6155H14.0299C15.6951 39.6278 17.3113 40.1783 18.6352 41.1842C19.9592 42.1901 20.9194 43.5969 21.3713 45.1931L22.4028 47.9123C22.9895 49.4267 23.9862 50.7497 25.2821 51.7342C26.5781 52.7188 28.1226 53.3265 29.7442 53.4899H64.7153C66.3807 53.4784 67.9972 52.9282 69.3214 51.9222C70.6455 50.9162 71.6055 49.5089 72.0568 47.9123L73.4569 45.1931C73.9088 43.5969 74.869 42.1901 76.193 41.1842C77.517 40.1783 79.1332 39.6278 80.7984 39.6155H88.0325C90.0852 39.6363 92.0457 40.4682 93.4827 41.9282C94.9198 43.3881 95.7159 45.3566 95.696 47.401V116.034C95.7146 118.077 94.9186 120.044 93.4827 121.502C92.0467 122.961 90.0882 123.793 88.0371 123.815Z" fill="white"/>
<path fill-rule="evenodd" clip-rule="evenodd" d="M34.8689 6.77866e-08H61.3924C62.8256 -1.74951e-05 64.2404 0.32192 65.5314 0.941797C66.8224 1.56167 67.9564 2.46355 68.849 3.5803C69.7416 4.69706 70.3698 5.99989 70.6868 7.39189C71.0038 8.78389 71.0015 10.2292 70.6801 11.6202L67.273 26.3592C66.7902 28.4521 65.6087 30.32 63.9216 31.6574C62.2345 32.9948 60.1417 33.7226 57.9854 33.7217H38.962C36.8758 33.7209 34.8475 33.0385 33.1883 31.779C31.5291 30.5196 30.3308 28.7527 29.777 26.7496L25.6792 12.0107C25.2897 10.6016 25.2322 9.12208 25.5112 7.68729C25.7901 6.2525 26.3979 4.90117 27.2873 3.73875C28.1767 2.57633 29.3237 1.6342 30.6387 0.985699C31.9538 0.337197 33.4014 -0.000174597 34.8689 6.77866e-08Z" fill="white"/>
</svg>
