<svg width="709" height="112" viewBox="0 0 709 112" fill="none" xmlns="http://www.w3.org/2000/svg">
<path fill-rule="evenodd" clip-rule="evenodd" d="M139.471 92.1837H151.327V88.8151H143.273V85.9546H150.443V82.9247H143.273V80.2901H151.12V77.1474H139.471V92.1837ZM153.454 92.1837H157.048V82.8118H157.086L162.167 92.1837H166.081V77.1285H162.487V86.4063H162.449L157.368 77.1285H153.454V92.1837ZM180.252 77.1285H167.718V80.4971H172.084V92.1837H175.886V80.4971H180.252V77.1285ZM181.927 92.1837H185.728V86.7074H188.607C189.04 86.7074 189.379 86.8015 189.642 86.9709C189.925 87.1402 190.132 87.366 190.282 87.6483C190.433 87.9306 190.527 88.2505 190.602 88.5704C190.659 88.8903 190.696 89.3044 190.734 89.7749C190.734 89.7937 190.734 89.869 190.753 90.0195C190.79 90.49 190.847 90.9228 190.885 91.318C190.941 91.6944 191.035 91.9955 191.148 92.1648H194.912C194.799 92.0519 194.705 91.8637 194.648 91.6191C194.573 91.3744 194.517 91.0734 194.479 90.7723C194.422 90.4523 194.404 90.2077 194.385 90.0007C194.366 89.8125 194.347 89.4925 194.328 89.0409L194.31 88.7775C194.291 88.3823 194.234 87.9871 194.14 87.6107C194.046 87.2343 193.933 86.8767 193.764 86.538C193.613 86.1993 193.387 85.917 193.124 85.6723C192.861 85.4277 192.541 85.2583 192.183 85.183V85.1454C192.917 84.8443 193.482 84.355 193.877 83.6587C194.272 82.9812 194.479 82.2096 194.479 81.3628C194.479 80.6289 194.347 79.989 194.046 79.4621C193.764 78.9163 193.388 78.4835 192.898 78.1259C192.409 77.7872 191.863 77.5237 191.261 77.3732C190.659 77.2038 190.019 77.1285 189.341 77.1285H181.889V92.1837H181.927ZM185.728 80.2713H188.758C189.323 80.2713 189.774 80.403 190.132 80.6853C190.489 80.9676 190.678 81.3628 190.678 81.8897C190.678 83.0753 190.094 83.6587 188.909 83.6587H185.728V80.2713ZM196.7 92.1837H208.556V88.8151H200.501V85.9546H207.671V82.9247H200.501V80.2901H208.348V77.1474H196.7V92.1837ZM224.213 83.941H218.059V86.8391H220.713C220.618 87.5354 220.261 88.0812 219.659 88.4952C219.056 88.9092 218.304 89.1162 217.363 89.1162C216.779 89.1162 216.252 88.9844 215.82 88.7398C215.387 88.4951 215.029 88.1564 214.747 87.7424C214.483 87.3095 214.276 86.8391 214.145 86.3122C214.013 85.7664 213.957 85.2207 213.957 84.6373C213.957 84.0727 214.013 83.5081 214.145 82.9812C214.276 82.4354 214.483 81.965 214.747 81.551C215.01 81.1182 215.387 80.7982 215.82 80.5536C216.252 80.309 216.761 80.1772 217.363 80.1772C218.153 80.1772 218.812 80.3654 219.358 80.7417C219.903 81.1181 220.204 81.6074 220.242 82.2473H224.044C223.968 81.344 223.724 80.5536 223.31 79.8572C222.914 79.1609 222.406 78.5776 221.785 78.1448C221.164 77.6931 220.468 77.3732 219.734 77.1474C218.981 76.9216 218.228 76.8274 217.438 76.8274C216.365 76.8274 215.368 77.0345 214.465 77.4297C213.561 77.8248 212.79 78.3894 212.15 79.1045C211.51 79.8196 211.002 80.6665 210.663 81.6262C210.325 82.5672 210.155 83.6023 210.155 84.6749C210.155 85.7476 210.325 86.7827 210.663 87.7236C211.002 88.6834 211.491 89.5114 212.15 90.2265C212.79 90.9416 213.58 91.5062 214.465 91.9014C215.368 92.2966 216.347 92.5036 217.438 92.5036C218.21 92.5036 218.944 92.3342 219.696 92.0331C220.449 91.7132 221.051 91.2239 221.503 90.5464L221.729 92.2025H224.175V83.941H224.213ZM232.531 81.3063H232.568L234.187 86.5756H230.875L232.531 81.3063ZM225.154 92.1837H229.068L229.99 89.4926H235.09L235.993 92.1837H239.964L234.507 77.1285H230.63L225.154 92.1837ZM241.018 92.1837H244.594V82.8118H244.631L249.694 92.1837H253.608V77.1285H250.032V86.4063H249.995L244.914 77.1285H240.999V92.1837H241.018ZM256.224 92.1837H262.509C264.768 92.1837 266.518 91.525 267.779 90.2265C269.04 88.9092 269.661 87.0461 269.661 84.5997C269.661 82.2661 269.021 80.4407 267.76 79.1233C266.499 77.806 264.73 77.1474 262.509 77.1474H256.224V92.1837ZM260.044 80.4971H261.851C263.168 80.4971 264.165 80.8358 264.843 81.5133C265.539 82.1908 265.878 83.207 265.878 84.562C265.878 86.0675 265.558 87.1402 264.937 87.7801C264.316 88.4199 263.281 88.7586 261.832 88.7962H260.025V80.4971H260.044ZM271.223 84.6561C271.223 85.7476 271.392 86.7638 271.712 87.7236C272.032 88.6645 272.502 89.5114 273.123 90.2265C273.744 90.9416 274.497 91.5062 275.4 91.9014C276.304 92.2966 277.32 92.5036 278.43 92.5036C279.559 92.5036 280.557 92.2966 281.46 91.9014C282.363 91.5062 283.116 90.9416 283.737 90.2265C284.358 89.5114 284.829 88.6834 285.148 87.7236C285.468 86.7827 285.638 85.7476 285.638 84.6561C285.638 83.5646 285.468 82.5484 285.148 81.5886C284.829 80.6477 284.358 79.8197 283.737 79.0857C283.116 78.3706 282.363 77.806 281.46 77.4108C280.557 77.0156 279.541 76.8086 278.43 76.8086C277.32 76.8086 276.304 77.0156 275.4 77.4108C274.497 77.806 273.744 78.3706 273.123 79.0857C272.502 79.8008 272.032 80.6289 271.712 81.5886C271.373 82.5296 271.223 83.5458 271.223 84.6561ZM275.024 84.6561C275.024 84.0915 275.099 83.527 275.231 83C275.363 82.4543 275.551 81.9838 275.833 81.5698C276.097 81.1369 276.454 80.817 276.906 80.5724C277.339 80.3277 277.847 80.196 278.43 80.196C279.014 80.196 279.54 80.3277 279.973 80.5724C280.406 80.817 280.764 81.1369 281.046 81.5698C281.309 81.9838 281.516 82.4731 281.648 83C281.78 83.527 281.855 84.0915 281.855 84.6561C281.855 85.2395 281.78 85.7852 281.648 86.331C281.516 86.8579 281.309 87.3472 281.046 87.7612C280.764 88.1752 280.425 88.514 279.973 88.7586C279.54 89.0033 279.032 89.135 278.43 89.135C277.847 89.135 277.339 89.0033 276.906 88.7586C276.473 88.514 276.116 88.1752 275.833 87.7612C275.551 87.3284 275.363 86.8579 275.231 86.331C275.08 85.7852 275.024 85.2395 275.024 84.6561ZM293.297 87.1214C293.297 88.0435 293.467 88.8527 293.805 89.5302C294.144 90.2265 294.596 90.7911 295.198 91.2239C295.8 91.6567 296.478 91.9767 297.211 92.1837C297.964 92.3907 298.773 92.4848 299.639 92.4848C300.505 92.4848 301.314 92.3907 302.067 92.2213C302.82 92.0519 303.478 91.7509 304.08 91.3745C304.683 90.9793 305.153 90.4524 305.492 89.7937C305.83 89.135 306.019 88.3635 306.019 87.4413C306.019 86.8015 305.906 86.2181 305.68 85.7476C305.454 85.2583 305.134 84.8443 304.739 84.5055C304.344 84.1668 303.892 83.9034 303.422 83.6775C302.951 83.4705 302.406 83.2823 301.784 83.0941C301.427 83 300.975 82.8683 300.448 82.7366C299.432 82.5108 298.698 82.2661 298.228 82.0591C297.757 81.8333 297.531 81.5322 297.531 81.1181C297.531 80.6665 297.72 80.3466 298.096 80.1396C298.472 79.9326 298.886 79.8385 299.376 79.8385C300.034 79.8385 300.599 79.9702 301.051 80.2525C301.502 80.5348 301.728 80.9864 301.728 81.6451H305.529C305.529 80.8359 305.36 80.1208 305.04 79.4997C304.72 78.8787 304.269 78.3706 303.723 77.9754C303.158 77.5802 302.556 77.2791 301.841 77.0909C301.145 76.9027 300.43 76.8086 299.677 76.8086C298.943 76.8086 298.228 76.9027 297.531 77.0721C296.816 77.2415 296.176 77.5237 295.612 77.8813C295.047 78.2577 294.577 78.7282 294.238 79.3115C293.899 79.8949 293.711 80.5912 293.711 81.3628C293.711 82.0215 293.843 82.6049 294.069 83.0753C294.313 83.5458 294.633 83.9598 295.028 84.2985C295.442 84.6185 295.875 84.9007 296.346 85.1077C296.816 85.3148 297.362 85.5218 297.983 85.6911C298.209 85.7664 298.585 85.8605 299.112 85.9922C300.166 86.2745 300.956 86.538 301.446 86.7827C301.935 87.0273 302.18 87.4037 302.18 87.893C302.18 88.4011 301.954 88.7962 301.502 89.0409C301.05 89.3044 300.486 89.4173 299.846 89.4173C298.98 89.4173 298.322 89.2479 297.851 88.8715C297.381 88.514 297.117 87.9118 297.08 87.0649H293.297V87.1214ZM307.788 92.1837H319.644V88.8151H311.589V85.9546H318.759V82.9247H311.589V80.2901H319.437V77.1474H307.788V92.1837ZM335.301 83.941H329.166V86.8391H331.82C331.707 87.5354 331.349 88.0812 330.766 88.4952C330.163 88.9092 329.411 89.1162 328.47 89.1162C327.886 89.1162 327.359 88.9844 326.927 88.7398C326.494 88.4951 326.136 88.1564 325.854 87.7424C325.59 87.3095 325.383 86.8391 325.252 86.3122C325.12 85.7664 325.063 85.2207 325.063 84.6373C325.063 84.0727 325.12 83.5081 325.252 82.9812C325.383 82.4354 325.59 81.965 325.854 81.551C326.117 81.1182 326.494 80.7982 326.927 80.5536C327.359 80.309 327.867 80.1772 328.47 80.1772C329.26 80.1772 329.919 80.3654 330.464 80.7417C331.01 81.1181 331.311 81.6074 331.368 82.2473H335.169C335.094 81.344 334.849 80.5536 334.454 79.8572C334.059 79.1609 333.532 78.5776 332.911 78.1448C332.29 77.6931 331.594 77.3732 330.86 77.1474C330.107 76.9216 329.354 76.8274 328.564 76.8274C327.491 76.8274 326.494 77.0345 325.59 77.4297C324.687 77.8248 323.915 78.3894 323.276 79.1045C322.636 79.8196 322.147 80.6665 321.789 81.6262C321.45 82.5672 321.281 83.6023 321.281 84.6749C321.281 85.7476 321.45 86.7827 321.789 87.7236C322.128 88.6834 322.636 89.5114 323.276 90.2265C323.915 90.9416 324.706 91.5062 325.59 91.9014C326.494 92.2966 327.472 92.5036 328.564 92.5036C329.335 92.5036 330.088 92.3342 330.822 92.0331C331.556 91.7132 332.158 91.2239 332.629 90.5464L332.855 92.2025H335.301V83.941ZM350.375 77.1285H346.573V86.1993C346.573 87.1967 346.385 87.9306 345.99 88.4199C345.595 88.8904 344.936 89.135 344.014 89.135C343.111 89.135 342.452 88.9092 342.057 88.4199C341.662 87.9494 341.455 87.1967 341.455 86.1993V77.1285H337.653V85.9546C337.653 88.1564 338.161 89.7937 339.197 90.8663C340.232 91.939 341.831 92.4848 344.014 92.4848C346.197 92.4848 347.816 91.939 348.832 90.8663C349.867 89.7937 350.375 88.1564 350.375 85.9546V77.1285ZM352.915 92.1837H356.717V86.7074H359.596C360.029 86.7074 360.368 86.8015 360.631 86.9709C360.914 87.1402 361.12 87.366 361.271 87.6483C361.422 87.9306 361.516 88.2505 361.591 88.5704C361.648 88.8903 361.704 89.3044 361.723 89.7749C361.723 89.7937 361.723 89.869 361.742 90.0195C361.779 90.49 361.836 90.9228 361.873 91.318C361.93 91.6944 362.024 91.9955 362.137 92.1648H365.901C365.788 92.0519 365.694 91.8637 365.637 91.6191C365.562 91.3744 365.505 91.0734 365.468 90.7723C365.411 90.4523 365.392 90.2077 365.374 90.0007C365.355 89.8125 365.336 89.4925 365.317 89.0409L365.298 88.7775C365.261 88.3823 365.223 87.9871 365.129 87.6107C365.035 87.2343 364.922 86.8767 364.753 86.538C364.602 86.1993 364.376 85.917 364.113 85.6723C363.849 85.4277 363.529 85.2583 363.172 85.183V85.1454C363.906 84.8443 364.47 84.355 364.866 83.6587C365.261 82.9812 365.449 82.2096 365.449 81.3628C365.449 80.6289 365.298 79.989 365.035 79.4621C364.753 78.9163 364.376 78.4835 363.887 78.1259C363.416 77.7872 362.852 77.5237 362.25 77.3732C361.647 77.2038 361.008 77.1285 360.33 77.1285H352.878V92.1837H352.915ZM356.717 80.2713H359.747C360.311 80.2713 360.763 80.403 361.121 80.6853C361.478 80.9676 361.666 81.3628 361.666 81.8897C361.666 83.0753 361.083 83.6587 359.897 83.6587H356.698V80.2713H356.717ZM373.56 81.3063H373.597L375.216 86.5756H371.904L373.56 81.3063ZM366.202 92.1837H370.116L371.038 89.4926H376.138L377.041 92.1837H381.012L375.555 77.1285H371.678L366.202 92.1837ZM382.066 92.1837H385.642V82.8118H385.679L390.76 92.1837H394.675V77.1285H391.099V86.4063H391.061L385.98 77.1285H382.066V92.1837ZM406.982 86.331C406.926 87.1966 406.625 87.8742 406.117 88.3823C405.608 88.8716 404.912 89.1162 404.028 89.1162C403.444 89.1162 402.917 88.9844 402.485 88.7398C402.052 88.4951 401.694 88.1564 401.412 87.7424C401.148 87.3284 400.941 86.8391 400.81 86.3122C400.678 85.7853 400.621 85.2395 400.621 84.6561C400.621 84.0915 400.678 83.527 400.81 83C400.941 82.4731 401.148 81.9838 401.412 81.5698C401.694 81.1558 402.052 80.817 402.485 80.5724C402.917 80.3277 403.425 80.196 404.028 80.196C404.837 80.196 405.514 80.403 406.041 80.7982C406.568 81.1934 406.888 81.7768 406.982 82.5107H410.784C410.746 81.6451 410.539 80.8547 410.163 80.1396C409.768 79.4245 409.259 78.841 408.62 78.3329C407.98 77.8248 407.265 77.4673 406.493 77.2038C405.721 76.9592 404.931 76.8274 404.122 76.8274C403.049 76.8274 402.052 77.0345 401.148 77.4297C400.245 77.8248 399.473 78.3894 398.834 79.1045C398.194 79.8196 397.705 80.6665 397.347 81.6262C397.008 82.5672 396.839 83.6023 396.839 84.6749C396.839 85.6912 396.989 86.6509 397.291 87.5354C397.592 88.4387 398.024 89.2291 398.589 89.9442C399.154 90.6593 399.831 91.2239 400.621 91.6568C401.412 92.0896 402.296 92.3719 403.256 92.466L402.259 94.1409L402.71 94.536C403.03 94.4419 403.294 94.3855 403.52 94.3855C404.103 94.3855 404.404 94.649 404.404 95.1947C404.404 95.684 404.065 95.9286 403.369 95.9286C402.861 95.8722 402.296 95.7405 401.694 95.5334L401.299 96.4744C401.713 96.6626 402.108 96.8131 402.503 96.9449C402.917 97.0766 403.313 97.1331 403.708 97.1331C404.498 97.1331 405.138 96.9825 405.608 96.6438C406.079 96.305 406.324 95.7969 406.324 95.0818C406.324 94.4984 406.154 94.0655 405.797 93.8021C405.439 93.5386 405.044 93.3881 404.573 93.3881C404.253 93.3881 403.971 93.4257 403.764 93.501L403.727 93.4634L404.366 92.466C405.251 92.4471 406.079 92.2966 406.851 92.0143C407.622 91.732 408.281 91.318 408.864 90.7911C409.429 90.2642 409.899 89.6243 410.219 88.8715C410.558 88.1188 410.746 87.2907 410.802 86.3498H406.982V86.331ZM418.688 81.3063H418.725L420.344 86.5756H417.032L418.688 81.3063ZM411.311 92.1837H415.225L416.147 89.4926H421.247L422.15 92.1837H426.121L420.645 77.1285H416.768L411.311 92.1837ZM433.667 92.1837H439.953C442.211 92.1837 443.961 91.525 445.222 90.2265C446.483 88.9092 447.104 87.0461 447.104 84.5997C447.104 82.2661 446.483 80.4407 445.204 79.1233C443.924 77.806 442.174 77.1474 439.934 77.1474H433.649V92.1837H433.667ZM437.469 80.4971H439.275C440.593 80.4971 441.59 80.8358 442.268 81.5133C442.964 82.1908 443.303 83.207 443.303 84.562C443.303 86.0675 442.983 87.1402 442.362 87.7801C441.741 88.4199 440.706 88.7586 439.257 88.7962H437.45V80.4971H437.469ZM449.212 92.1837H461.068V88.8151H453.013V85.9546H460.183V82.9247H453.013V80.2901H460.861V77.1474H449.212V92.1837ZM481.844 77.1285H477.873L475.013 88.3258H474.975L472.115 77.1285H468.144L472.754 92.1837H477.139L481.844 77.1285ZM482.935 92.1837H494.791V88.8151H486.737V85.9546H493.907V82.9247H486.737V80.2901H494.584V77.1474H482.935V92.1837ZM496.956 92.1837H500.757V86.7074H503.636C504.05 86.7074 504.408 86.8015 504.69 86.9709C504.954 87.1402 505.161 87.366 505.33 87.6483C505.48 87.9306 505.593 88.2505 505.65 88.5704C505.706 88.8903 505.744 89.3044 505.782 89.7749C505.782 89.7937 505.782 89.869 505.8 90.0195C505.838 90.49 505.894 90.9228 505.932 91.318C505.989 91.6944 506.083 91.9955 506.214 92.1648H509.978C509.865 92.0519 509.771 91.8637 509.715 91.6191C509.639 91.3744 509.583 91.0734 509.545 90.7723C509.508 90.4523 509.47 90.2077 509.451 90.0007C509.432 89.8125 509.414 89.4925 509.395 89.0409L509.376 88.7775C509.338 88.3823 509.282 87.9871 509.207 87.6107C509.112 87.2343 509 86.8767 508.83 86.538C508.661 86.1993 508.454 85.917 508.19 85.6723C507.927 85.4277 507.607 85.2583 507.249 85.183V85.1454C507.983 84.8443 508.548 84.355 508.943 83.6587C509.338 82.9812 509.545 82.2096 509.545 81.3628C509.545 80.6289 509.414 79.989 509.131 79.4621C508.849 78.9163 508.473 78.4835 507.983 78.1259C507.494 77.7872 506.948 77.5237 506.346 77.3732C505.744 77.2038 505.104 77.1285 504.427 77.1285H496.974V92.1837H496.956ZM500.776 80.2713H503.806C504.37 80.2713 504.822 80.403 505.179 80.6853C505.537 80.9676 505.725 81.3628 505.725 81.8897C505.725 83.0753 505.142 83.6587 503.956 83.6587H500.757V80.2713H500.776ZM511.747 92.1837H518.033C520.291 92.1837 522.041 91.525 523.302 90.2265C524.563 88.9092 525.203 87.0461 525.203 84.5997C525.203 82.2661 524.563 80.4407 523.302 79.1233C522.022 77.806 520.291 77.1474 518.033 77.1474H511.747V92.1837ZM515.549 80.4971H517.355C518.673 80.4971 519.67 80.8358 520.347 81.5133C521.044 82.1908 521.382 83.207 521.382 84.562C521.382 86.0675 521.081 87.1402 520.442 87.7801C519.821 88.4199 518.785 88.7586 517.336 88.7962H515.53V80.4971H515.549ZM533.144 81.3063H533.182L534.8 86.5756H531.488L533.144 81.3063ZM525.786 92.1837H529.7L530.623 89.4926H535.722L536.626 92.1837H540.597L535.139 77.1285H531.262L525.786 92.1837ZM541.688 92.1837H547.974C550.232 92.1837 551.982 91.525 553.243 90.2265C554.504 88.9092 555.144 87.0461 555.144 84.5997C555.144 82.2661 554.504 80.4407 553.243 79.1233C551.963 77.806 550.232 77.1474 547.974 77.1474H541.688V92.1837ZM545.49 80.4971H547.296C548.613 80.4971 549.611 80.8358 550.288 81.5133C550.985 82.1908 551.323 83.207 551.323 84.562C551.323 86.0675 551.022 87.1402 550.382 87.7801C549.761 88.4199 548.726 88.7586 547.277 88.7962H545.471V80.4971H545.49ZM557.232 92.1837H569.088V88.8151H561.053V85.9546H568.204V82.9247H561.053V80.2901H568.881V77.1474H557.232V92.1837Z" fill="#000200"/>
<path d="M494.584 111.36C494.772 111.379 494.848 111.21 494.904 111.116C495.073 110.72 495.28 110.344 495.469 109.968C495.6 109.666 495.77 109.403 495.92 109.102C495.939 109.064 495.977 109.027 495.977 108.989C495.977 108.594 496.278 108.312 496.41 107.954C496.522 107.672 496.692 107.408 496.824 107.126C496.974 106.806 497.144 106.505 497.294 106.185C497.313 106.147 497.332 106.128 497.332 106.091C497.35 105.677 497.633 105.357 497.802 104.999C497.934 104.717 498.066 104.435 498.197 104.171C498.348 103.889 498.498 103.607 498.63 103.324C498.724 103.117 498.837 102.91 498.912 102.685C498.988 102.421 499.044 102.082 499.402 101.97C499.421 101.97 499.439 101.951 499.458 101.951C499.816 101.988 500.173 101.838 500.493 101.744C500.794 101.65 501.095 101.668 501.359 101.574C501.604 101.499 501.848 101.518 502.055 101.405C502.281 101.273 502.545 101.349 502.733 101.236C502.959 101.104 503.241 101.179 503.429 101.066C503.711 100.916 504.012 101.01 504.257 100.897C504.539 100.765 504.878 100.859 505.142 100.633C505.198 100.577 505.311 100.596 505.386 100.596C505.781 100.615 506.101 100.408 506.497 100.408C506.515 100.408 506.572 100.408 506.572 100.389C506.76 100.144 507.005 100.238 507.249 100.238C507.362 100.238 507.456 100.238 507.532 100.144C507.569 100.088 507.663 100.069 507.72 100.069C508.058 100.125 508.36 99.9371 508.679 99.9182C509.112 99.8994 509.489 99.636 509.921 99.7113C509.959 99.7113 510.016 99.7112 510.034 99.6924C510.185 99.5042 510.392 99.5607 510.58 99.5419C510.731 99.5419 510.862 99.5607 510.994 99.429C511.126 99.2973 511.314 99.3914 511.483 99.3725C511.615 99.3725 511.728 99.3725 511.822 99.2596C511.954 99.1279 512.142 99.2032 512.312 99.2032C512.443 99.2032 512.575 99.2219 512.669 99.0902C512.707 99.0338 512.801 99.0338 512.895 99.0338C513.083 99.0338 513.271 99.0338 513.459 99.0338C513.554 99.0338 513.61 99.015 513.685 98.9585C513.855 98.808 514.08 98.8832 514.287 98.8644C514.382 98.8644 514.476 98.8832 514.551 98.7703C514.607 98.695 514.72 98.695 514.814 98.695C515.059 98.6762 515.285 98.7327 515.511 98.5633C515.661 98.4504 515.906 98.5445 516.094 98.5257C516.226 98.5257 516.376 98.5633 516.471 98.4128C516.508 98.3563 516.602 98.3563 516.659 98.3563C516.828 98.3563 517.016 98.3563 517.186 98.3563C517.28 98.3563 517.374 98.3751 517.449 98.2622C517.506 98.187 517.6 98.1681 517.675 98.1869C517.882 98.2058 518.089 98.1493 518.296 98.1869C518.315 98.1869 518.334 98.1869 518.334 98.1869C518.616 97.9047 518.955 98.0552 519.275 98.0176C519.331 98.0176 519.369 98.0176 519.425 97.9611C519.5 97.867 519.632 97.8294 519.745 97.8482C519.952 97.867 520.14 97.8106 520.347 97.8482C520.366 97.8482 520.422 97.8482 520.422 97.8294C520.592 97.5847 520.855 97.6976 521.062 97.6788C521.307 97.66 521.533 97.6788 521.778 97.5471C521.947 97.453 522.229 97.5094 522.455 97.5094C522.549 97.5094 522.643 97.5283 522.718 97.4154C522.775 97.3401 522.869 97.3401 522.944 97.3401C523.151 97.3401 523.358 97.3401 523.565 97.3401C523.697 97.3401 523.829 97.3589 523.923 97.2272C523.942 97.1895 524.017 97.1707 524.036 97.1895C524.262 97.2836 524.469 97.1519 524.676 97.1707C524.845 97.1895 525.014 97.2083 525.146 97.039C525.184 96.9825 525.259 97.0013 525.334 97.0013C525.522 97.0013 525.711 97.0013 525.899 97.0013C526.049 97.0013 526.219 97.039 526.35 96.8884C526.407 96.832 526.482 96.832 526.557 96.832C526.821 96.832 527.066 96.832 527.329 96.832C527.48 96.832 527.649 96.8696 527.743 96.7002C527.781 96.6438 527.856 96.6626 527.931 96.6626C528.157 96.6626 528.383 96.6626 528.609 96.6626C528.722 96.6626 528.853 96.7003 528.929 96.5497C528.966 96.4744 529.06 96.4932 529.117 96.4932C529.361 96.4932 529.606 96.4932 529.851 96.4932C530.02 96.4932 530.208 96.5497 530.321 96.3615C530.359 96.305 530.453 96.3238 530.528 96.3238C530.886 96.3238 531.243 96.3238 531.601 96.3238C531.695 96.3238 531.77 96.3238 531.808 96.2298C531.846 96.1545 531.94 96.1545 532.015 96.1545C532.241 96.1545 532.467 96.1545 532.692 96.1545C532.881 96.1545 533.069 96.1733 533.2 96.0228C533.257 95.9663 533.332 95.9851 533.408 95.9851C533.709 95.9851 534.01 95.9851 534.311 95.9851C534.48 95.9851 534.65 96.0227 534.762 95.8534C534.8 95.7969 534.894 95.8157 534.969 95.8157C535.383 95.8157 535.798 95.8157 536.212 95.8157C536.287 95.8157 536.381 95.8346 536.419 95.7217C536.475 95.6276 536.569 95.6464 536.663 95.6464C537.077 95.6464 537.472 95.6464 537.886 95.6464C537.981 95.6464 538.075 95.6652 538.131 95.5523C538.169 95.4582 538.282 95.477 538.357 95.477C538.827 95.477 539.317 95.477 539.787 95.477C539.881 95.477 539.957 95.477 539.994 95.3829C540.032 95.2888 540.145 95.3076 540.22 95.3076C540.69 95.3076 541.161 95.3076 541.631 95.3076C541.726 95.3076 541.82 95.3264 541.876 95.2135C541.914 95.1194 542.027 95.1383 542.102 95.1383C542.685 95.1383 543.269 95.1383 543.852 95.1383C543.946 95.1383 544.021 95.1571 544.078 95.0442C544.116 94.9501 544.228 94.9689 544.323 94.9689C544.962 94.9689 545.602 94.9689 546.261 94.9689C546.336 94.9689 546.43 94.9877 546.468 94.8748C546.506 94.7807 546.618 94.7995 546.713 94.7995C547.522 94.7995 548.35 94.7995 549.159 94.7995C549.253 94.7995 549.328 94.8183 549.385 94.7054C549.422 94.6113 549.554 94.6301 549.629 94.6301C550.552 94.6301 551.455 94.6301 552.377 94.6301C552.49 94.6301 552.584 94.6301 552.659 94.5172C552.716 94.4231 552.848 94.4419 552.942 94.4419C554.579 94.4419 556.197 94.4419 557.835 94.4419C557.947 94.4419 558.06 94.4419 558.154 94.329C558.211 94.2537 558.324 94.2726 558.418 94.2726C562.106 94.2726 565.814 94.2726 569.502 94.2726C569.747 94.2726 569.935 94.4419 569.935 94.6866C569.935 95.7404 569.935 96.7943 569.935 97.8294C567.752 97.8294 565.588 97.8294 563.405 97.8294C563.292 97.8294 563.179 97.8294 563.104 97.9047C563.01 97.9988 562.916 97.9987 562.784 97.9987C561.655 97.9987 560.526 97.9987 559.397 97.9987C559.302 97.9987 559.189 97.9799 559.133 98.0552C559.058 98.1681 558.945 98.1681 558.832 98.1681C558.154 98.1681 557.477 98.1681 556.799 98.1681C556.705 98.1681 556.611 98.1493 556.555 98.2246C556.48 98.3375 556.367 98.3375 556.254 98.3375C555.689 98.3375 555.125 98.3375 554.56 98.3375C554.466 98.3375 554.372 98.3186 554.315 98.3939C554.24 98.5068 554.146 98.5068 554.033 98.5068C553.581 98.5068 553.111 98.5068 552.659 98.5068C552.565 98.5068 552.471 98.5068 552.415 98.5821C552.358 98.6762 552.264 98.6762 552.17 98.6762C551.7 98.6762 551.248 98.6762 550.777 98.6762C550.683 98.6762 550.589 98.6762 550.533 98.7515C550.476 98.8456 550.401 98.8456 550.307 98.8456C549.949 98.8456 549.592 98.8456 549.234 98.8456C549.159 98.8456 549.084 98.8268 549.027 98.8832C548.933 99.0526 548.764 99.015 548.632 99.015C548.369 99.015 548.124 99.015 547.861 99.015C547.785 99.015 547.691 98.9961 547.654 99.0526C547.541 99.2031 547.39 99.1843 547.258 99.1843C547.014 99.1843 546.75 99.1843 546.505 99.1843C546.43 99.1843 546.355 99.1655 546.298 99.222C546.167 99.3913 545.997 99.3537 545.828 99.3537C545.583 99.3537 545.358 99.3537 545.113 99.3537C545.038 99.3537 544.944 99.3349 544.906 99.3913C544.793 99.5419 544.624 99.5231 544.473 99.5231C544.285 99.5231 544.078 99.5231 543.89 99.5231C543.814 99.5231 543.72 99.5231 543.664 99.5795C543.57 99.7113 543.457 99.6736 543.344 99.6924C543.005 99.7301 542.648 99.5607 542.347 99.843C542.328 99.8618 542.252 99.8618 542.196 99.8618C542.027 99.8618 541.838 99.8618 541.65 99.8618C541.575 99.8618 541.481 99.843 541.443 99.8995C541.33 100.069 541.18 100.031 541.01 100.031C540.822 100.031 540.615 100.031 540.427 100.031C540.371 100.031 540.276 100.012 540.239 100.069C540.107 100.238 539.919 100.201 539.75 100.201C539.505 100.219 539.241 100.125 539.053 100.37C539.016 100.408 538.959 100.408 538.903 100.389C538.677 100.37 538.432 100.295 538.225 100.426C537.943 100.596 537.661 100.52 537.36 100.539C537.284 100.539 537.19 100.52 537.153 100.577C536.983 100.784 536.757 100.709 536.531 100.709C536.437 100.709 536.306 100.69 536.249 100.765C536.155 100.897 536.023 100.878 535.91 100.878C535.609 100.878 535.308 100.822 535.064 101.047C535.026 101.085 534.97 101.047 534.932 101.047C534.706 101.047 534.48 100.991 534.292 101.179C534.273 101.198 534.236 101.217 534.198 101.217C533.972 101.217 533.727 101.217 533.502 101.217C533.426 101.217 533.351 101.217 533.295 101.273C533.201 101.386 533.088 101.386 532.975 101.386C532.843 101.386 532.711 101.348 532.617 101.461C532.523 101.556 532.429 101.574 532.297 101.556C531.864 101.518 531.469 101.819 531.018 101.744C530.999 101.744 530.942 101.762 530.923 101.8C530.829 101.913 530.716 101.913 530.604 101.913C530.415 101.913 530.208 101.875 530.058 101.988C529.945 102.082 529.832 102.082 529.7 102.082C529.55 102.082 529.361 102.026 529.267 102.12C529.06 102.308 528.835 102.252 528.609 102.252C528.515 102.252 528.402 102.233 528.326 102.327C528.251 102.421 528.157 102.421 528.063 102.421C527.95 102.421 527.799 102.365 527.705 102.459C527.517 102.647 527.291 102.572 527.084 102.591C526.99 102.591 526.859 102.572 526.802 102.647C526.708 102.779 526.576 102.76 526.463 102.76C526.35 102.76 526.2 102.722 526.125 102.816C526.031 102.929 525.918 102.929 525.805 102.929C525.391 102.873 525.033 103.155 524.619 103.155C524.6 103.155 524.563 103.193 524.544 103.212C524.487 103.268 524.431 103.268 524.375 103.268C524.168 103.268 523.96 103.23 523.81 103.419C523.791 103.437 523.716 103.437 523.659 103.437C523.396 103.456 523.17 103.437 522.907 103.569C522.7 103.682 522.398 103.644 522.154 103.757C521.966 103.833 521.759 103.814 521.552 103.908C521.326 104.002 521.025 104.002 520.78 104.096C520.592 104.171 520.385 104.171 520.178 104.247C519.952 104.341 519.67 104.36 519.425 104.416C519.162 104.472 518.898 104.548 518.635 104.585C518.522 104.604 518.371 104.567 518.334 104.623C518.145 104.849 517.844 104.755 517.6 104.905C517.411 105.018 517.11 104.999 516.847 105.093C516.659 105.169 516.414 105.056 516.245 105.263C516.226 105.282 516.169 105.282 516.151 105.282C515.944 105.282 515.737 105.244 515.567 105.432C515.548 105.451 515.473 105.451 515.417 105.451C515.116 105.507 514.852 105.677 514.532 105.639C514.513 105.639 514.476 105.658 514.457 105.677C514.382 105.79 514.269 105.809 514.156 105.771C513.855 105.715 513.629 106.016 513.328 105.978C513.328 105.978 513.328 105.997 513.309 105.997C513.215 106.129 513.064 106.147 512.914 106.129C512.613 106.091 512.368 106.373 512.067 106.317C512.048 106.317 512.029 106.336 512.029 106.354C511.954 106.448 511.841 106.467 511.728 106.467C511.559 106.467 511.389 106.43 511.258 106.599C511.239 106.618 511.201 106.637 511.164 106.637C510.863 106.674 510.58 106.825 510.26 106.844C510.11 106.844 509.922 106.994 509.715 106.994C509.677 106.994 509.639 107.032 509.639 107.051C509.583 107.145 509.508 107.164 509.413 107.145C509.075 107.069 508.83 107.333 508.51 107.371C508.378 107.389 508.209 107.502 508.04 107.502C507.983 107.502 507.946 107.54 507.908 107.596C507.833 107.69 507.72 107.747 507.607 107.728C507.268 107.634 507.005 107.879 506.704 107.954C506.628 107.973 506.572 108.029 506.497 108.01C506.365 108.01 506.252 108.01 506.177 108.123C506.139 108.18 506.083 108.18 506.026 108.18C505.876 108.18 505.744 108.161 505.65 108.312C505.631 108.33 505.574 108.349 505.537 108.349C505.33 108.349 505.104 108.311 504.935 108.5C504.916 108.518 504.859 108.519 504.803 108.519C504.652 108.5 504.52 108.519 504.426 108.669C504.389 108.726 504.351 108.726 504.276 108.726C503.994 108.707 503.768 108.876 503.485 108.933C503.391 108.951 503.278 109.045 503.147 109.027C503.071 109.027 502.996 109.027 502.959 109.102C502.902 109.215 502.789 109.215 502.695 109.196C502.375 109.14 502.13 109.422 501.811 109.403C501.792 109.403 501.754 109.422 501.735 109.459C501.679 109.554 501.604 109.554 501.509 109.554C501.378 109.554 501.265 109.554 501.19 109.666C501.152 109.723 501.095 109.723 501.039 109.723C500.888 109.723 500.757 109.723 500.663 109.855C500.625 109.892 500.569 109.892 500.531 109.892C500.249 109.873 500.042 110.137 499.759 110.099C499.741 110.099 499.722 110.118 499.703 110.137C499.646 110.231 499.552 110.231 499.458 110.231C499.195 110.231 498.988 110.476 498.705 110.438C498.687 110.438 498.668 110.457 498.649 110.476C498.593 110.57 498.517 110.57 498.423 110.57C498.141 110.551 497.953 110.777 497.67 110.796C497.558 110.796 497.426 110.908 497.275 110.908C497.2 110.908 497.143 110.927 497.106 110.984C497.049 111.078 496.974 111.078 496.88 111.078C496.598 111.059 496.391 111.247 496.127 111.323C495.977 111.36 495.789 111.36 495.657 111.454C495.506 111.548 495.356 111.624 495.168 111.605C495.13 111.605 495.092 111.624 495.073 111.642C495.017 111.793 494.885 111.868 494.753 111.925C494.716 111.925 494.697 111.925 494.659 111.925C494.622 111.868 494.565 111.849 494.528 111.925C494.339 111.962 494.283 111.887 494.302 111.718C494.603 111.661 494.584 111.511 494.584 111.36Z" fill="#F5C500"/>
<path d="M495.017 112C495.149 111.944 495.262 111.868 495.337 111.718C495.356 111.699 495.393 111.661 495.431 111.68C495.619 111.699 495.77 111.624 495.92 111.53C496.052 111.454 496.24 111.435 496.391 111.398C496.654 111.341 496.861 111.153 497.143 111.153C497.238 111.153 497.313 111.153 497.369 111.059C497.407 111.003 497.463 110.984 497.539 110.984C497.689 110.984 497.84 110.871 497.934 110.871C498.216 110.852 498.404 110.626 498.687 110.645C498.781 110.645 498.856 110.645 498.912 110.551C498.931 110.532 498.95 110.513 498.969 110.513C499.251 110.551 499.458 110.306 499.722 110.306C499.816 110.306 499.91 110.306 499.966 110.212C499.985 110.193 500.004 110.175 500.023 110.175C500.305 110.212 500.512 109.949 500.794 109.968C500.851 109.968 500.907 109.968 500.926 109.93C501.02 109.798 501.171 109.779 501.302 109.798C501.359 109.798 501.415 109.798 501.453 109.742C501.528 109.61 501.66 109.629 501.773 109.629C501.867 109.629 501.942 109.629 501.999 109.535C502.018 109.516 502.036 109.478 502.074 109.478C502.394 109.516 502.639 109.215 502.959 109.271C503.053 109.29 503.147 109.271 503.222 109.177C503.26 109.121 503.335 109.102 503.41 109.102C503.542 109.102 503.655 109.027 503.749 109.008C504.012 108.951 504.257 108.782 504.539 108.801C504.615 108.801 504.652 108.801 504.69 108.744C504.784 108.594 504.916 108.594 505.066 108.594C505.104 108.594 505.16 108.594 505.198 108.575C505.367 108.387 505.574 108.424 505.8 108.424C505.838 108.424 505.894 108.424 505.913 108.387C506.007 108.236 506.139 108.255 506.289 108.255C506.346 108.255 506.402 108.255 506.44 108.199C506.515 108.086 506.647 108.086 506.76 108.086C506.835 108.086 506.911 108.029 506.967 108.029C507.268 107.954 507.532 107.709 507.87 107.803C507.964 107.822 508.096 107.766 508.171 107.672C508.209 107.634 508.247 107.578 508.303 107.578C508.472 107.578 508.642 107.465 508.774 107.446C509.093 107.408 509.338 107.145 509.677 107.22C509.752 107.239 509.846 107.22 509.903 107.126C509.922 107.107 509.959 107.069 509.978 107.069C510.166 107.069 510.354 106.919 510.524 106.919C510.844 106.9 511.126 106.75 511.427 106.712C511.465 106.712 511.502 106.693 511.521 106.674C511.653 106.505 511.822 106.543 511.992 106.543C512.105 106.543 512.217 106.524 512.293 106.43C512.311 106.411 512.33 106.392 512.33 106.392C512.65 106.448 512.876 106.166 513.177 106.204C513.328 106.223 513.459 106.204 513.572 106.072L513.591 106.053C513.892 106.091 514.099 105.79 514.419 105.846C514.532 105.865 514.645 105.865 514.72 105.752C514.739 105.733 514.777 105.696 514.796 105.714C515.116 105.752 515.379 105.583 515.68 105.526C515.737 105.526 515.793 105.526 515.831 105.507C515.981 105.319 516.207 105.357 516.414 105.357C516.452 105.357 516.508 105.357 516.508 105.338C516.677 105.131 516.922 105.244 517.11 105.169C517.355 105.056 517.675 105.093 517.863 104.981C518.108 104.83 518.409 104.943 518.597 104.698C518.654 104.642 518.804 104.679 518.898 104.661C519.162 104.604 519.425 104.548 519.688 104.491C519.933 104.435 520.215 104.397 520.441 104.322C520.648 104.247 520.855 104.247 521.044 104.171C521.307 104.077 521.589 104.077 521.815 103.983C522.022 103.889 522.229 103.908 522.417 103.833C522.662 103.72 522.963 103.757 523.17 103.644C523.434 103.494 523.659 103.531 523.923 103.513C523.979 103.513 524.055 103.531 524.073 103.494C524.224 103.287 524.45 103.343 524.638 103.343C524.713 103.343 524.77 103.324 524.807 103.287C524.826 103.268 524.864 103.23 524.883 103.23C525.297 103.249 525.654 102.948 526.068 103.005C526.181 103.023 526.294 103.023 526.388 102.892C526.463 102.798 526.614 102.835 526.727 102.835C526.859 102.835 526.971 102.854 527.066 102.722C527.122 102.647 527.254 102.666 527.348 102.666C527.555 102.647 527.781 102.722 527.969 102.534C528.044 102.44 528.195 102.496 528.326 102.496C528.421 102.496 528.515 102.496 528.59 102.402C528.646 102.308 528.778 102.327 528.872 102.327C529.098 102.308 529.324 102.384 529.531 102.195C529.625 102.101 529.813 102.176 529.964 102.158C530.095 102.158 530.208 102.158 530.321 102.064C530.472 101.951 530.679 101.988 530.867 101.988C530.999 101.988 531.112 101.988 531.187 101.875C531.206 101.857 531.243 101.819 531.281 101.819C531.733 101.894 532.109 101.593 532.561 101.631C532.674 101.631 532.786 101.631 532.881 101.537C532.975 101.424 533.125 101.461 533.238 101.461C533.37 101.461 533.483 101.461 533.558 101.348C533.596 101.292 533.69 101.292 533.765 101.292C533.991 101.292 534.236 101.292 534.461 101.292C534.499 101.292 534.537 101.292 534.555 101.254C534.744 101.066 534.97 101.123 535.195 101.123C535.233 101.123 535.289 101.16 535.327 101.123C535.572 100.878 535.873 100.953 536.174 100.953C536.306 100.953 536.419 100.972 536.513 100.84C536.569 100.746 536.701 100.784 536.795 100.784C537.002 100.765 537.247 100.859 537.416 100.652C537.454 100.596 537.548 100.633 537.623 100.615C537.905 100.596 538.206 100.671 538.489 100.502C538.677 100.389 538.94 100.445 539.166 100.464C539.223 100.464 539.298 100.483 539.317 100.445C539.505 100.219 539.768 100.295 540.013 100.276C540.182 100.276 540.37 100.313 540.502 100.144C540.54 100.088 540.615 100.106 540.69 100.106C540.879 100.106 541.086 100.106 541.274 100.106C541.424 100.106 541.594 100.144 541.707 99.9747C541.744 99.9182 541.838 99.9371 541.914 99.9371C542.102 99.9371 542.271 99.9371 542.459 99.9371C542.516 99.9371 542.572 99.9559 542.61 99.9182C542.911 99.6359 543.269 99.8053 543.607 99.7677C543.72 99.7489 543.852 99.7865 543.927 99.6548C543.965 99.5795 544.059 99.5983 544.153 99.5983C544.341 99.5983 544.548 99.5983 544.736 99.5983C544.887 99.5983 545.056 99.6359 545.169 99.4666C545.207 99.4101 545.301 99.429 545.376 99.429C545.621 99.429 545.847 99.429 546.091 99.429C546.261 99.429 546.43 99.4666 546.562 99.2972C546.6 99.2408 546.694 99.2596 546.769 99.2596C547.014 99.2596 547.277 99.2596 547.522 99.2596C547.672 99.2596 547.823 99.2972 547.917 99.1279C547.955 99.0714 548.049 99.0902 548.124 99.0902C548.387 99.0902 548.632 99.0902 548.895 99.0902C549.046 99.0902 549.197 99.1279 549.291 98.9585C549.328 98.902 549.422 98.9208 549.498 98.9208C549.855 98.9208 550.213 98.9208 550.57 98.9208C550.664 98.9208 550.74 98.9208 550.796 98.8267C550.853 98.7326 550.947 98.7514 551.041 98.7514C551.511 98.7514 551.963 98.7514 552.433 98.7514C552.528 98.7514 552.622 98.7703 552.678 98.6574C552.735 98.5633 552.829 98.5821 552.923 98.5821C553.374 98.5821 553.845 98.5821 554.297 98.5821C554.409 98.5821 554.504 98.5821 554.579 98.4692C554.635 98.3939 554.729 98.4127 554.823 98.4127C555.388 98.4127 555.953 98.4127 556.517 98.4127C556.63 98.4127 556.743 98.4315 556.818 98.2998C556.875 98.2245 556.969 98.2434 557.063 98.2434C557.74 98.2434 558.418 98.2434 559.095 98.2434C559.208 98.2434 559.321 98.2622 559.396 98.1305C559.453 98.0552 559.566 98.074 559.66 98.074C560.789 98.074 561.918 98.074 563.047 98.074C563.16 98.074 563.273 98.074 563.367 97.9799C563.443 97.9046 563.555 97.9046 563.668 97.9046C565.851 97.9046 568.016 97.9046 570.199 97.9046C570.199 98.8268 570.199 99.7677 570.217 100.69C570.217 100.803 570.161 100.803 570.067 100.803C569.709 100.803 569.352 100.803 568.994 100.803C568.919 100.803 568.844 100.765 568.825 100.897C568.825 101.01 568.712 100.972 568.655 100.972C568.034 100.972 567.413 100.972 566.792 100.972C566.717 100.972 566.604 100.934 566.604 101.085C566.604 101.179 566.51 101.141 566.454 101.141C565.945 101.141 565.419 101.141 564.91 101.141C564.835 101.141 564.741 101.104 564.722 101.236C564.703 101.33 564.609 101.311 564.534 101.311C564.139 101.311 563.762 101.311 563.367 101.311C563.292 101.311 563.179 101.273 563.16 101.424C563.16 101.518 563.066 101.48 562.991 101.48C562.596 101.48 562.182 101.48 561.786 101.48C561.711 101.48 561.617 101.443 561.598 101.593C561.598 101.687 561.504 101.65 561.448 101.65C561.09 101.65 560.751 101.65 560.394 101.65C560.319 101.65 560.243 101.631 560.225 101.762C560.225 101.857 560.13 101.819 560.074 101.819C559.773 101.819 559.491 101.819 559.189 101.819C559.114 101.819 559.02 101.781 559.02 101.913C559.02 102.007 558.926 101.988 558.869 101.988C558.568 101.988 558.267 101.988 557.966 101.988C557.891 101.988 557.816 101.97 557.816 102.082C557.816 102.177 557.722 102.158 557.665 102.158C557.364 102.158 557.082 102.158 556.781 102.158C556.705 102.158 556.611 102.12 556.592 102.271C556.592 102.365 556.498 102.327 556.442 102.327C556.141 102.327 555.84 102.327 555.539 102.327C555.482 102.327 555.388 102.289 555.426 102.421C555.445 102.478 555.35 102.496 555.275 102.496C555.106 102.496 554.955 102.496 554.786 102.496C554.692 102.496 554.541 102.44 554.541 102.628C554.541 102.685 554.466 102.666 554.409 102.666C554.202 102.666 554.014 102.666 553.807 102.666C553.694 102.666 553.525 102.59 553.506 102.798C553.506 102.835 553.412 102.816 553.374 102.816C553.149 102.816 552.923 102.816 552.697 102.816C552.64 102.816 552.49 102.722 552.528 102.929C552.546 102.967 552.433 102.986 552.358 102.986C552.17 102.986 551.963 102.986 551.775 102.986C551.643 102.986 551.492 102.91 551.436 103.117C551.417 103.174 551.342 103.155 551.304 103.155C551.135 103.155 550.984 103.155 550.815 103.155C550.721 103.155 550.627 103.136 550.57 103.268C550.552 103.324 550.457 103.343 550.382 103.343C550.232 103.343 550.1 103.343 549.949 103.343C549.855 103.343 549.78 103.324 549.724 103.437C549.705 103.494 549.592 103.513 549.517 103.513C549.366 103.513 549.215 103.513 549.065 103.513C549.008 103.513 548.914 103.494 548.914 103.607C548.914 103.682 548.839 103.682 548.764 103.682C548.613 103.682 548.481 103.682 548.331 103.682C548.199 103.682 548.086 103.663 547.973 103.795C547.86 103.927 547.653 103.833 547.503 103.851C547.39 103.87 547.202 103.757 547.164 104.002C547.164 104.04 547.07 104.021 547.032 104.021C546.863 104.021 546.712 104.021 546.543 104.021C546.449 104.021 546.336 103.983 546.336 104.152C546.336 104.228 546.242 104.19 546.186 104.19C546.016 104.19 545.847 104.19 545.677 104.19C545.583 104.19 545.47 104.153 545.452 104.303C545.452 104.378 545.376 104.341 545.339 104.341C545.207 104.341 545.075 104.341 544.944 104.341C544.906 104.341 544.831 104.341 544.831 104.36C544.793 104.585 544.624 104.491 544.492 104.51C544.322 104.51 544.172 104.51 544.021 104.642C543.89 104.755 543.702 104.661 543.532 104.679C543.419 104.698 543.287 104.642 543.25 104.811C543.231 104.886 543.175 104.849 543.118 104.849C543.005 104.849 542.873 104.849 542.761 104.849C542.723 104.849 542.666 104.849 542.666 104.849C542.497 105.169 542.196 104.943 541.97 105.018C541.876 105.037 541.725 104.98 541.707 105.15C541.707 105.206 541.631 105.188 541.575 105.188C541.462 105.188 541.33 105.188 541.217 105.188C541.18 105.188 541.104 105.188 541.104 105.206C541.029 105.451 540.822 105.338 540.653 105.357C540.54 105.376 540.371 105.282 540.333 105.507C540.333 105.545 540.22 105.526 540.145 105.526C539.975 105.564 539.75 105.432 539.637 105.677C539.618 105.733 539.43 105.696 539.317 105.696C539.185 105.696 539.016 105.639 538.978 105.846C538.959 105.884 538.903 105.865 538.865 105.865C538.658 105.903 538.413 105.752 538.263 106.016C538.225 106.072 538.037 106.016 537.905 106.034C537.792 106.053 537.642 105.959 537.604 106.166C537.604 106.223 537.51 106.185 537.472 106.204C537.284 106.241 537.04 106.091 536.889 106.354C536.87 106.392 536.682 106.354 536.588 106.373C536.456 106.373 536.306 106.317 536.23 106.505C536.212 106.58 536.061 106.524 535.967 106.524C535.873 106.524 535.76 106.505 535.722 106.637C535.703 106.712 535.647 106.693 535.609 106.693C535.478 106.693 535.346 106.693 535.214 106.693C535.176 106.693 535.101 106.693 535.101 106.712C535.026 106.957 534.8 106.844 534.65 106.862C534.537 106.881 534.405 106.825 534.33 106.994C534.292 107.069 534.16 107.032 534.066 107.032C533.972 107.032 533.859 107.013 533.822 107.145C533.803 107.22 533.727 107.201 533.69 107.201C533.577 107.201 533.445 107.201 533.332 107.201C533.295 107.201 533.219 107.201 533.219 107.22C533.144 107.446 532.956 107.352 532.786 107.371C532.749 107.371 532.692 107.371 532.692 107.389C532.58 107.653 532.354 107.502 532.184 107.54C532.109 107.559 531.996 107.502 531.977 107.653C531.977 107.709 531.883 107.709 531.827 107.709C531.695 107.709 531.563 107.709 531.432 107.709C531.356 107.709 531.3 107.69 531.281 107.803C531.262 107.897 531.168 107.879 531.112 107.879C530.98 107.897 530.792 107.803 530.716 108.029C530.698 108.086 530.566 108.048 530.472 108.048C530.378 108.048 530.265 108.01 530.246 108.161C530.227 108.217 530.152 108.217 530.095 108.217C529.964 108.217 529.832 108.217 529.7 108.217C529.663 108.217 529.587 108.217 529.587 108.236C529.55 108.481 529.361 108.368 529.23 108.387C529.154 108.406 529.06 108.368 529.023 108.481C528.985 108.594 528.872 108.537 528.797 108.556C528.684 108.575 528.533 108.518 528.477 108.688C528.458 108.763 528.383 108.726 528.326 108.726C528.138 108.763 527.912 108.613 527.762 108.876C527.743 108.914 527.574 108.895 527.48 108.895C527.404 108.895 527.329 108.876 527.31 108.989C527.31 109.045 527.235 109.064 527.178 109.064C527.066 109.064 526.934 109.064 526.821 109.064C526.746 109.064 526.651 109.045 526.633 109.177C526.614 109.29 526.501 109.234 526.426 109.234C526.294 109.252 526.143 109.177 526.068 109.365C526.03 109.441 525.899 109.384 525.805 109.403C525.711 109.403 525.616 109.384 525.56 109.516C525.522 109.629 525.409 109.554 525.334 109.572C525.221 109.591 525.071 109.516 525.033 109.704C525.014 109.761 524.901 109.723 524.845 109.742C524.732 109.742 524.6 109.704 524.525 109.873C524.487 109.968 524.356 109.911 524.261 109.911C524.167 109.911 524.055 109.892 524.017 110.024C523.979 110.137 523.885 110.062 523.81 110.08C523.64 110.118 523.415 109.968 523.283 110.231C523.264 110.269 523.095 110.25 523.001 110.25C522.907 110.25 522.831 110.231 522.794 110.363C522.775 110.476 522.681 110.419 522.624 110.419C522.493 110.438 522.342 110.363 522.267 110.57C522.248 110.645 522.116 110.589 522.022 110.589C521.928 110.589 521.815 110.57 521.759 110.701C521.721 110.814 521.608 110.739 521.533 110.758C521.42 110.777 521.307 110.739 521.232 110.89C521.194 110.984 521.081 110.927 521.006 110.927C520.893 110.927 520.78 110.908 520.724 111.059C520.686 111.153 520.573 111.097 520.498 111.115C520.404 111.134 520.272 111.04 520.253 111.228C520.234 111.304 520.102 111.266 520.027 111.285C519.914 111.304 519.783 111.228 519.726 111.417C519.689 111.511 519.557 111.454 519.463 111.454C519.35 111.454 519.237 111.435 519.199 111.567C519.199 111.586 519.162 111.605 519.162 111.605C518.861 111.53 518.654 111.831 518.352 111.793C518.202 111.774 518.183 111.849 518.202 111.962C510.411 112 502.714 112 495.017 112Z" fill="#449320"/>
<path d="M494.81 111.999C494.847 111.925 494.903 111.944 494.94 111.999C494.885 111.999 494.847 111.999 494.81 111.999Z" fill="#449320"/>
<path fill-rule="evenodd" clip-rule="evenodd" d="M124.23 24.8566V68.1271H138.553V27.161C138.553 25.7904 140.646 24.6608 141.987 24.6608H145.616C146.49 24.6608 146.339 25.0524 147.228 25.0524H148.237V16.9496L139.155 16.3923C131.685 15.8652 124.23 18.3804 124.23 24.8566Z" fill="#000200"/>
<path d="M124.23 24.8566V68.1271H138.553V27.161C138.553 25.7904 140.646 24.6608 141.987 24.6608H145.616C146.49 24.6608 146.339 25.0524 147.228 25.0524H148.237V16.9496L139.155 16.3923C131.685 15.8652 124.23 18.3804 124.23 24.8566Z" stroke="#000200" stroke-width="0.162"/>
<path fill-rule="evenodd" clip-rule="evenodd" d="M255.908 27.9442V68.1421H270.231V27.3568C270.231 25.67 272.445 24.6609 274.268 24.6609L276.497 24.6006L279.916 25.0525V16.9948L271.451 16.3924C261.255 15.5941 255.908 18.6515 255.908 27.9442Z" fill="#000200"/>
<path d="M255.908 27.9442V68.1421H270.231V27.3568C270.231 25.67 272.445 24.6609 274.268 24.6609L276.497 24.6006L279.916 25.0525V16.9948L271.451 16.3924C261.255 15.5941 255.908 18.6515 255.908 27.9442Z" stroke="#000200" stroke-width="0.162"/>
<path fill-rule="evenodd" clip-rule="evenodd" d="M322.659 30.6251C322.659 28.8328 323.984 26.1972 325.491 26.1972H326.906C328.94 26.1972 329.934 28.7576 329.934 30.8059V36.3784H322.674V30.6251H322.659ZM344.242 53.8945V51.1985H329.723V56.3946C329.723 57.9158 328.518 59.8586 326.891 59.8586H326.078C323.231 59.8586 322.644 57.0272 322.644 54.2861V46.9814H344.227V31.2125C344.211 31.1975 342.916 26.4532 342.344 25.3086C341.32 23.2452 340.461 22.2361 338.82 20.7752C336.425 18.6215 331.5 16.4075 326.876 16.4075H325.069C316.484 16.4075 308.336 23.6669 308.336 31.7848V53.8945C308.336 61.9521 316.981 68.6995 326.078 68.6995H327.283C332.358 68.6995 336.003 66.6211 338.895 64.392C340.025 63.5185 341.772 61.2894 342.389 60.0394C343.052 58.7742 344.061 54.1806 344.242 53.8945Z" fill="#000200"/>
<path d="M322.659 30.6251C322.659 28.8328 323.984 26.1972 325.491 26.1972H326.906C328.94 26.1972 329.934 28.7425 329.934 30.8059V36.3784H322.674V30.6251H322.659ZM344.242 53.8945V51.1985H329.723V56.3946C329.723 57.9158 328.518 59.8586 326.891 59.8586H326.078C323.231 59.8586 322.644 57.0272 322.644 54.2861V46.9814H344.227V31.2125C344.211 31.1824 342.916 26.4532 342.344 25.3086C341.32 23.2452 340.461 22.2361 338.82 20.7752C336.425 18.6215 331.5 16.4075 326.876 16.4075H325.069C316.484 16.4075 308.336 23.6669 308.336 31.7848V53.8945C308.336 61.9521 316.981 68.6995 326.078 68.6995H327.283C332.358 68.6995 336.003 66.6211 338.895 64.392C340.025 63.5185 341.772 61.3045 342.389 60.0394C343.052 58.7742 344.061 54.1806 344.242 53.8945Z" stroke="#000200" stroke-width="0.162"/>
<path fill-rule="evenodd" clip-rule="evenodd" d="M191.583 13.7868V67.9313H205.74V25.5645H211.523V17.2056H205.74V14.5398C205.74 13.1693 207.397 12.0698 208.722 12.0698L209.716 12.0246L211.508 12.2656C211.508 10.3076 211.478 8.3196 211.523 6.36166C211.584 3.62055 210.665 4.10251 207.532 4.10251H202.155C195.453 4.10251 191.583 7.37074 191.583 13.7868Z" fill="#000200"/>
<path d="M191.583 13.7868V67.9313H205.74V25.5646H211.523V17.2057H205.74V14.5549C205.74 13.1844 207.397 12.0849 208.722 12.0849L209.716 12.0397L211.508 12.2807C211.508 10.3228 211.478 8.33474 211.523 6.3768C211.584 3.63569 210.665 4.11764 207.532 4.11764H202.155C195.453 4.10258 191.583 7.3708 191.583 13.7868Z" stroke="#000200" stroke-width="0.162"/>
<path fill-rule="evenodd" clip-rule="evenodd" d="M167.289 60.1599H166.28C164.367 60.1599 163.253 58.955 163.253 57.0874V52.4787C163.253 48.2164 166.732 45.9573 170.301 45.1741C170.301 49.5117 171.371 60.1599 167.289 60.1599ZM151.144 33.2307H164.051V30.354C164.051 28.6973 165.045 26.6942 166.672 26.6942H167.876C170.964 26.6942 170.286 31.8752 170.286 34.9627C168.057 35.1434 157.831 39.481 156.008 40.5654C151.882 43.0204 148.915 46.9664 148.915 53.2318V58.6236C148.915 63.5335 154.246 69.3923 159.804 69.3923H161.009C166.596 69.3923 167.289 67.4645 170.286 65.5517V68.6242H184.609V29.1943C184.609 22.5524 177.109 17.0852 170.09 17.0852H166.265C157.921 17.0702 151.144 24.676 151.144 33.2307Z" fill="#000200"/>
<path d="M167.289 60.1599H166.28C164.367 60.1599 163.253 58.955 163.253 57.0874V52.4787C163.253 48.2164 166.732 45.9573 170.301 45.1741C170.301 49.5117 171.371 60.1599 167.289 60.1599ZM151.144 33.2307H164.051V30.354C164.051 28.6973 165.045 26.6942 166.672 26.6942H167.876C170.964 26.6942 170.286 31.8752 170.286 34.9627C168.057 35.1434 157.831 39.481 156.008 40.5654C151.882 43.0204 148.915 46.9664 148.915 53.2318V58.6236C148.915 63.5335 154.246 69.3923 159.804 69.3923H161.009C166.596 69.3923 167.289 67.4645 170.286 65.5517V68.6242H184.609V29.1943C184.609 22.5524 177.109 17.0852 170.09 17.0852H166.265C157.921 17.0702 151.144 24.6911 151.144 33.2307Z" stroke="#000200" stroke-width="0.162"/>
<path fill-rule="evenodd" clip-rule="evenodd" d="M285.157 58.5332C285.157 66.0186 287.943 67.9314 295.85 67.9314L299.691 67.9766L305.128 67.7356V59.3014H303.32C301.091 59.3014 299.48 58.729 299.48 56.6054V23.9832H305.128V15.3532H299.48V4.02728H285.157V58.5332Z" fill="#000200"/>
<path d="M285.157 58.5332C285.157 66.0185 287.943 67.9313 295.85 67.9313L299.691 67.9765L305.128 67.7355V59.2863H303.32C301.091 59.2863 299.48 58.714 299.48 56.5904V23.9681H305.128V15.3381H299.48V4.01221H285.157V58.5332Z" stroke="#000200" stroke-width="0.162"/>
<path fill-rule="evenodd" clip-rule="evenodd" d="M229.296 33.1252C229.296 29.8268 229.25 26.1971 232.729 26.1971H233.332C235.998 26.1971 236.359 30.2787 236.359 32.9294V54.2709C236.359 56.8313 235.892 59.8436 233.332 59.8436H232.127C229.476 59.8436 229.296 55.4307 229.296 52.7347V33.1252ZM214.973 33.1252V53.6986C214.973 62.2684 223.241 68.6994 232.323 68.6994H234.733C243.453 68.6994 250.667 61.3647 250.667 52.5389V32.5379C250.667 22.8988 242.971 16.3773 232.91 16.3773C222.096 16.3924 214.973 22.703 214.973 33.1252Z" fill="#000200"/>
<path d="M229.296 33.1252C229.296 29.8268 229.25 26.1971 232.729 26.1971H233.332C235.998 26.1971 236.359 30.2787 236.359 32.9294V54.2709C236.359 56.8313 235.892 59.8436 233.332 59.8436H232.127C229.476 59.8436 229.296 55.4307 229.296 52.7347V33.1252ZM214.973 33.1252V53.6986C214.973 62.2684 223.241 68.6994 232.323 68.6994H234.733C243.453 68.6994 250.667 61.3647 250.667 52.5389V32.5379C250.667 22.8988 242.971 16.3773 232.91 16.3773C222.096 16.4074 214.973 22.703 214.973 33.1252Z" stroke="#000200" stroke-width="0.162"/>
<path fill-rule="evenodd" clip-rule="evenodd" d="M20.7601 17.4015L20.7752 68.1422H35.0983V25.4441C36.0772 25.3688 36.3634 25.0676 37.5231 25.0676H39.3455C40.957 25.0676 42.3728 27.0557 42.3728 28.9082V67.9464H56.5V26.0164C57.479 25.8056 58.2922 25.0526 59.723 25.0526H60.943C62.1931 25.0526 63.3528 26.9352 63.3528 28.5166V68.1272H77.8717V29.0889C77.8717 20.3535 69.5881 16.2117 60.3255 16.2117C56.5603 16.2117 50.5359 18.0944 49.9033 18.0492C46.9965 17.8233 43.8186 16.2117 39.1497 16.2117C33.1403 16.2117 26.9954 16.8593 20.7601 17.4015Z" fill="#000200"/>
<path d="M20.7601 17.4015L20.7752 68.1422H35.0983V25.4441C36.0772 25.3688 36.3634 25.0676 37.5231 25.0676H39.3455C40.957 25.0676 42.3728 27.0557 42.3728 28.9082V67.9464H56.5001V26.0164C57.479 25.7905 58.2922 25.0526 59.723 25.0526H60.943C62.1931 25.0526 63.3528 26.9352 63.3528 28.5166V68.1272H77.8717V29.0889C77.8717 20.3535 69.5881 16.2117 60.3255 16.2117C56.5603 16.2117 50.5359 18.0944 49.9033 18.0492C46.9965 17.8233 43.8186 16.2117 39.1497 16.2117C33.1403 16.2117 26.9954 16.8593 20.7601 17.4015Z" stroke="#000200" stroke-width="0.162"/>
<path fill-rule="evenodd" clip-rule="evenodd" d="M97.4059 31.2728C97.4059 28.9233 97.8727 25.0074 100.026 25.0074H102.045C103.792 25.0074 104.665 28.7726 104.665 30.6854V34.7971C104.665 39.5413 104.454 44.2403 104.469 48.7135C104.469 53.3372 105.674 59.2863 101.036 59.2863C98.5956 59.2863 97.4059 56.7109 97.4059 54.3915V31.2728ZM83.0828 68.1272H97.4059V64.7987C98.8367 65.1752 100.448 68.7145 105.072 68.7145H106.081C113.386 68.7145 118.793 62.2835 118.793 55.3855V28.7275C118.793 22.447 113.356 15.3984 107.105 15.3984H105.087C100.508 15.3984 99.3036 18.5311 97.6167 19.1185V4.02728H83.0979V68.1272H83.0828Z" fill="#000200"/>
<path d="M97.4059 31.2728C97.4059 28.9232 97.8727 25.0074 100.026 25.0074H102.045C103.792 25.0074 104.665 28.7726 104.665 30.6854V34.7971C104.665 39.5413 104.454 44.2403 104.469 48.7135C104.469 53.3372 105.674 59.2863 101.036 59.2863C98.5956 59.2863 97.4059 56.7109 97.4059 54.3915V31.2728ZM83.0828 68.1272H97.4059V64.7987C98.8367 65.1752 100.448 68.7145 105.072 68.7145H106.081C113.386 68.7145 118.793 62.2835 118.793 55.3855V28.7275C118.793 22.447 113.356 15.3984 107.105 15.3984H105.087C100.508 15.3984 99.3036 18.5311 97.6167 19.1185V4.02728H83.0979V68.1272H83.0828Z" stroke="#000200" stroke-width="0.162"/>
<path d="M15.3231 4.04236H1V68.1422H15.3231V4.04236Z" fill="#000200"/>
<path d="M15.3231 4.04236H1V68.1272H15.3231V4.04236Z" stroke="#000200" stroke-width="0.162"/>
<path fill-rule="evenodd" clip-rule="evenodd" d="M124.23 24.8566V68.1271H138.553V27.161C138.553 25.7904 140.646 24.6608 141.987 24.6608H145.616C146.49 24.6608 146.339 25.0524 147.228 25.0524H148.237V16.9496L139.155 16.3923C131.685 15.8652 124.23 18.3804 124.23 24.8566Z" fill="#000200"/>
<path d="M124.23 24.8566V68.1271H138.553V27.161C138.553 25.7904 140.646 24.6608 141.987 24.6608H145.616C146.49 24.6608 146.339 25.0524 147.228 25.0524H148.237V16.9496L139.155 16.3923C131.685 15.8652 124.23 18.3804 124.23 24.8566Z" stroke="#000200" stroke-width="0.162"/>
<path fill-rule="evenodd" clip-rule="evenodd" d="M255.908 27.9442V68.1421H270.231V27.3568C270.231 25.67 272.445 24.6609 274.268 24.6609L276.497 24.6006L279.916 25.0525V16.9948L271.451 16.3924C261.255 15.5941 255.908 18.6515 255.908 27.9442Z" fill="#000200"/>
<path d="M255.908 27.9442V68.1421H270.231V27.3568C270.231 25.67 272.445 24.6609 274.268 24.6609L276.497 24.6006L279.916 25.0525V16.9948L271.451 16.3924C261.255 15.5941 255.908 18.6515 255.908 27.9442Z" stroke="#000200" stroke-width="0.162"/>
<path fill-rule="evenodd" clip-rule="evenodd" d="M322.659 30.6251C322.659 28.8328 323.984 26.1972 325.491 26.1972H326.906C328.94 26.1972 329.934 28.7576 329.934 30.8059V36.3784H322.674V30.6251H322.659ZM344.242 53.8945V51.1985H329.723V56.3946C329.723 57.9158 328.518 59.8586 326.891 59.8586H326.078C323.231 59.8586 322.644 57.0272 322.644 54.2861V46.9814H344.227V31.2125C344.211 31.1975 342.916 26.4532 342.344 25.3086C341.32 23.2452 340.461 22.2361 338.82 20.7752C336.425 18.6215 331.5 16.4075 326.876 16.4075H325.069C316.484 16.4075 308.336 23.6669 308.336 31.7848V53.8945C308.336 61.9521 316.981 68.6995 326.078 68.6995H327.283C332.358 68.6995 336.003 66.6211 338.895 64.392C340.025 63.5185 341.772 61.2894 342.389 60.0394C343.052 58.7742 344.061 54.1806 344.242 53.8945Z" fill="#000200"/>
<path d="M322.659 30.6251C322.659 28.8328 323.984 26.1972 325.491 26.1972H326.906C328.94 26.1972 329.934 28.7425 329.934 30.8059V36.3784H322.674V30.6251H322.659ZM344.242 53.8945V51.1985H329.723V56.3946C329.723 57.9158 328.518 59.8586 326.891 59.8586H326.078C323.231 59.8586 322.644 57.0272 322.644 54.2861V46.9814H344.227V31.2125C344.211 31.1824 342.916 26.4532 342.344 25.3086C341.32 23.2452 340.461 22.2361 338.82 20.7752C336.425 18.6215 331.5 16.4075 326.876 16.4075H325.069C316.484 16.4075 308.336 23.6669 308.336 31.7848V53.8945C308.336 61.9521 316.981 68.6995 326.078 68.6995H327.283C332.358 68.6995 336.003 66.6211 338.895 64.392C340.025 63.5185 341.772 61.3045 342.389 60.0394C343.052 58.7742 344.061 54.1806 344.242 53.8945Z" stroke="#000200" stroke-width="0.162"/>
<path fill-rule="evenodd" clip-rule="evenodd" d="M191.583 13.7868V67.9313H205.74V25.5645H211.523V17.2056H205.74V14.5398C205.74 13.1693 207.397 12.0698 208.722 12.0698L209.716 12.0246L211.508 12.2656C211.508 10.3076 211.478 8.3196 211.523 6.36166C211.584 3.62055 210.665 4.10251 207.532 4.10251H202.155C195.453 4.10251 191.583 7.37074 191.583 13.7868Z" fill="#000200"/>
<path d="M191.583 13.7868V67.9313H205.74V25.5646H211.523V17.2057H205.74V14.5549C205.74 13.1844 207.397 12.0849 208.722 12.0849L209.716 12.0397L211.508 12.2807C211.508 10.3228 211.478 8.33474 211.523 6.3768C211.584 3.63569 210.665 4.11764 207.532 4.11764H202.155C195.453 4.10258 191.583 7.3708 191.583 13.7868Z" stroke="#000200" stroke-width="0.162"/>
<path fill-rule="evenodd" clip-rule="evenodd" d="M167.289 60.1599H166.28C164.367 60.1599 163.253 58.955 163.253 57.0874V52.4787C163.253 48.2164 166.732 45.9573 170.301 45.1741C170.301 49.5117 171.371 60.1599 167.289 60.1599ZM151.144 33.2307H164.051V30.354C164.051 28.6973 165.045 26.6942 166.672 26.6942H167.876C170.964 26.6942 170.286 31.8752 170.286 34.9627C168.057 35.1434 157.831 39.481 156.008 40.5654C151.882 43.0204 148.915 46.9664 148.915 53.2318V58.6236C148.915 63.5335 154.246 69.3923 159.804 69.3923H161.009C166.596 69.3923 167.289 67.4645 170.286 65.5517V68.6242H184.609V29.1943C184.609 22.5524 177.109 17.0852 170.09 17.0852H166.265C157.921 17.0702 151.144 24.676 151.144 33.2307Z" fill="#000200"/>
<path d="M167.289 60.1599H166.28C164.367 60.1599 163.253 58.955 163.253 57.0874V52.4787C163.253 48.2164 166.732 45.9573 170.301 45.1741C170.301 49.5117 171.371 60.1599 167.289 60.1599ZM151.144 33.2307H164.051V30.354C164.051 28.6973 165.045 26.6942 166.672 26.6942H167.876C170.964 26.6942 170.286 31.8752 170.286 34.9627C168.057 35.1434 157.831 39.481 156.008 40.5654C151.882 43.0204 148.915 46.9664 148.915 53.2318V58.6236C148.915 63.5335 154.246 69.3923 159.804 69.3923H161.009C166.596 69.3923 167.289 67.4645 170.286 65.5517V68.6242H184.609V29.1943C184.609 22.5524 177.109 17.0852 170.09 17.0852H166.265C157.921 17.0702 151.144 24.6911 151.144 33.2307Z" stroke="#000200" stroke-width="0.162"/>
<path fill-rule="evenodd" clip-rule="evenodd" d="M285.157 58.5332C285.157 66.0186 287.943 67.9314 295.85 67.9314L299.691 67.9766L305.128 67.7356V59.3014H303.32C301.091 59.3014 299.48 58.729 299.48 56.6054V23.9832H305.128V15.3532H299.48V4.02728H285.157V58.5332Z" fill="#000200"/>
<path d="M285.157 58.5332C285.157 66.0185 287.943 67.9313 295.85 67.9313L299.691 67.9765L305.128 67.7355V59.2863H303.32C301.091 59.2863 299.48 58.714 299.48 56.5904V23.9681H305.128V15.3381H299.48V4.01221H285.157V58.5332Z" stroke="#000200" stroke-width="0.162"/>
<path fill-rule="evenodd" clip-rule="evenodd" d="M229.296 33.1252C229.296 29.8268 229.25 26.1971 232.729 26.1971H233.332C235.998 26.1971 236.359 30.2787 236.359 32.9294V54.2709C236.359 56.8313 235.892 59.8436 233.332 59.8436H232.127C229.476 59.8436 229.296 55.4307 229.296 52.7347V33.1252ZM214.973 33.1252V53.6986C214.973 62.2684 223.241 68.6994 232.323 68.6994H234.733C243.453 68.6994 250.667 61.3647 250.667 52.5389V32.5379C250.667 22.8988 242.971 16.3773 232.91 16.3773C222.096 16.3924 214.973 22.703 214.973 33.1252Z" fill="#000200"/>
<path d="M229.296 33.1252C229.296 29.8268 229.25 26.1971 232.729 26.1971H233.332C235.998 26.1971 236.359 30.2787 236.359 32.9294V54.2709C236.359 56.8313 235.892 59.8436 233.332 59.8436H232.127C229.476 59.8436 229.296 55.4307 229.296 52.7347V33.1252ZM214.973 33.1252V53.6986C214.973 62.2684 223.241 68.6994 232.323 68.6994H234.733C243.453 68.6994 250.667 61.3647 250.667 52.5389V32.5379C250.667 22.8988 242.971 16.3773 232.91 16.3773C222.096 16.4074 214.973 22.703 214.973 33.1252Z" stroke="#000200" stroke-width="0.162"/>
<path fill-rule="evenodd" clip-rule="evenodd" d="M20.7601 17.4015L20.7752 68.1422H35.0983V25.4441C36.0772 25.3688 36.3634 25.0676 37.5231 25.0676H39.3455C40.957 25.0676 42.3728 27.0557 42.3728 28.9082V67.9464H56.5V26.0164C57.479 25.8056 58.2922 25.0526 59.723 25.0526H60.943C62.1931 25.0526 63.3528 26.9352 63.3528 28.5166V68.1272H77.8717V29.0889C77.8717 20.3535 69.5881 16.2117 60.3255 16.2117C56.5603 16.2117 50.5359 18.0944 49.9033 18.0492C46.9965 17.8233 43.8186 16.2117 39.1497 16.2117C33.1403 16.2117 26.9954 16.8593 20.7601 17.4015Z" fill="#000200"/>
<path d="M20.7601 17.4015L20.7752 68.1422H35.0983V25.4441C36.0772 25.3688 36.3634 25.0676 37.5231 25.0676H39.3455C40.957 25.0676 42.3728 27.0557 42.3728 28.9082V67.9464H56.5001V26.0164C57.479 25.7905 58.2922 25.0526 59.723 25.0526H60.943C62.1931 25.0526 63.3528 26.9352 63.3528 28.5166V68.1272H77.8717V29.0889C77.8717 20.3535 69.5881 16.2117 60.3255 16.2117C56.5603 16.2117 50.5359 18.0944 49.9033 18.0492C46.9965 17.8233 43.8186 16.2117 39.1497 16.2117C33.1403 16.2117 26.9954 16.8593 20.7601 17.4015Z" stroke="#000200" stroke-width="0.162"/>
<path fill-rule="evenodd" clip-rule="evenodd" d="M97.4059 31.2728C97.4059 28.9233 97.8727 25.0074 100.026 25.0074H102.045C103.792 25.0074 104.665 28.7726 104.665 30.6854V34.7971C104.665 39.5413 104.454 44.2403 104.469 48.7135C104.469 53.3372 105.674 59.2863 101.036 59.2863C98.5956 59.2863 97.4059 56.7109 97.4059 54.3915V31.2728ZM83.0828 68.1272H97.4059V64.7987C98.8367 65.1752 100.448 68.7145 105.072 68.7145H106.081C113.386 68.7145 118.793 62.2835 118.793 55.3855V28.7275C118.793 22.447 113.356 15.3984 107.105 15.3984H105.087C100.508 15.3984 99.3036 18.5311 97.6167 19.1185V4.02728H83.0979V68.1272H83.0828Z" fill="#000200"/>
<path d="M97.4059 31.2728C97.4059 28.9232 97.8727 25.0074 100.026 25.0074H102.045C103.792 25.0074 104.665 28.7726 104.665 30.6854V34.7971C104.665 39.5413 104.454 44.2403 104.469 48.7135C104.469 53.3372 105.674 59.2863 101.036 59.2863C98.5956 59.2863 97.4059 56.7109 97.4059 54.3915V31.2728ZM83.0828 68.1272H97.4059V64.7987C98.8367 65.1752 100.448 68.7145 105.072 68.7145H106.081C113.386 68.7145 118.793 62.2835 118.793 55.3855V28.7275C118.793 22.447 113.356 15.3984 107.105 15.3984H105.087C100.508 15.3984 99.3036 18.5311 97.6167 19.1185V4.02728H83.0979V68.1272H83.0828Z" stroke="#000200" stroke-width="0.162"/>
<path d="M15.3231 4.04236H1V68.1422H15.3231V4.04236Z" fill="#000200"/>
<path d="M15.3231 4.04236H1V68.1272H15.3231V4.04236Z" stroke="#000200" stroke-width="0.162"/>
<path fill-rule="evenodd" clip-rule="evenodd" d="M554.238 58.5935H553.214C551.286 58.5935 550.156 57.3735 550.156 55.4909V50.8219C550.156 46.5145 553.681 44.2403 557.28 43.442C557.295 47.8399 558.365 58.5935 554.238 58.5935ZM537.942 31.3932H550.985V28.4864C550.985 26.8146 551.994 24.7964 553.635 24.7964H554.855C557.973 24.7964 557.295 30.0377 557.295 33.1403C555.051 33.321 544.719 37.7038 542.867 38.8033C538.695 41.2733 535.713 45.2644 535.713 51.5901V57.0271C535.713 61.9822 541.09 67.9012 546.707 67.9012H547.927C553.575 67.9012 554.253 65.9583 557.295 64.0154V67.118H571.754V27.3117C571.754 20.5944 564.178 15.0821 557.099 15.0821H553.229C544.78 15.0821 537.942 22.7632 537.942 31.3932Z" fill="#000200"/>
<path d="M554.238 58.5935H553.214C551.286 58.5935 550.156 57.3886 550.156 55.4909V50.822C550.156 46.5295 553.681 44.2403 557.28 43.442C557.295 47.8399 558.365 58.5935 554.238 58.5935ZM537.942 31.3932H550.985V28.4864C550.985 26.8146 551.994 24.7964 553.635 24.7964H554.855C557.973 24.7964 557.295 30.0377 557.295 33.1403C555.051 33.321 544.719 37.7038 542.867 38.8033C538.695 41.2733 535.713 45.2644 535.713 51.5901V57.0271C535.713 61.9822 541.09 67.9012 546.707 67.9012H547.927C553.575 67.9012 554.253 65.9583 557.295 64.0155V67.118H571.754V27.3117C571.754 20.5944 564.178 15.0821 557.099 15.0821H553.229C544.78 15.0821 537.942 22.7632 537.942 31.3932Z" stroke="#000200" stroke-width="0.162"/>
<path fill-rule="evenodd" clip-rule="evenodd" d="M444.684 12.3861H430.3L430.15 2.0392L444.684 2.00909V12.3861Z" fill="#000200"/>
<path d="M444.684 12.3861H430.3L430.15 2.0392L444.684 2.00909V12.3861Z" stroke="#000200" stroke-width="0.162"/>
<path fill-rule="evenodd" clip-rule="evenodd" d="M444.789 67.0579L430.255 66.9826L430.195 17.1155H444.819L444.789 67.0579Z" fill="#000200"/>
<path d="M444.789 67.0579L430.255 66.9826L430.195 17.1155H444.819L444.789 67.0579Z" stroke="#000200" stroke-width="0.162"/>
<path fill-rule="evenodd" clip-rule="evenodd" d="M423.116 67.1181L408.808 66.9825V2.15973L423.116 2.18988V67.1181Z" fill="#000200"/>
<path d="M423.116 67.1181L408.808 66.9825V2.15973L423.116 2.18988V67.1181Z" stroke="#000200" stroke-width="0.162"/>
<path fill-rule="evenodd" clip-rule="evenodd" d="M451.672 27.5678V66.9977H465.935V24.661C466.929 24.4502 467.742 23.6971 469.188 23.6971H470.408C471.673 23.6971 472.848 25.5948 472.848 27.1913V67.2085H487.517V27.7636C487.517 18.9378 479.415 14.6605 469.896 14.7057C465.272 14.5551 451.883 14.1183 451.853 16.257C451.838 16.7841 451.838 16.7088 451.838 17.1757C451.717 26.6491 451.973 23.9381 451.672 27.5678Z" fill="#000200"/>
<path d="M451.672 27.5678V66.9977H465.935V24.661C466.929 24.4502 467.742 23.6971 469.188 23.6971H470.408C471.673 23.6971 472.848 25.5948 472.848 27.1913V67.2085H487.517V27.7636C487.517 18.9378 479.415 14.6605 469.896 14.7057C465.272 14.5551 451.883 14.1183 451.853 16.257C451.838 16.7841 451.838 16.7088 451.838 17.1757C451.717 26.6491 451.973 23.9381 451.672 27.5678Z" stroke="#000200" stroke-width="0.162"/>
<path fill-rule="evenodd" clip-rule="evenodd" d="M514.793 29.7968C514.793 27.4322 514.311 23.5013 512.127 23.5013H510.079C508.302 23.5013 507.413 27.2967 507.413 29.2095V33.3513C507.413 38.1256 507.624 42.8547 507.624 47.3429C507.624 51.9968 506.389 57.976 511.118 57.976C513.603 57.976 514.823 55.4006 514.823 53.0511V29.7968H514.793ZM529.372 66.832H514.793V63.4884C513.332 63.8649 511.69 67.4194 506.991 67.4194H505.967C498.512 67.4194 493.03 60.9581 493.03 54.0301V27.2365C493.03 20.9259 498.572 13.8472 504.943 13.8472H506.991C511.66 13.8472 512.88 16.9949 514.597 17.5823V2.41583H529.387V66.832H529.372Z" fill="#000200"/>
<path d="M514.793 29.7968C514.793 27.4322 514.311 23.5013 512.127 23.5013H510.079C508.302 23.5013 507.413 27.2967 507.413 29.2095V33.3513C507.413 38.1256 507.624 42.8547 507.624 47.3429C507.624 51.9968 506.389 57.976 511.118 57.976C513.603 57.976 514.823 55.4006 514.823 53.0511V29.7968H514.793ZM529.372 66.832H514.793V63.4884C513.332 63.8649 511.69 67.4194 506.991 67.4194H505.967C498.512 67.4194 493.03 60.9581 493.03 54.0301V27.2365C493.03 20.9259 498.572 13.8472 504.943 13.8472H506.991C511.66 13.8472 512.88 16.9949 514.597 17.5823V2.41583H529.387V66.832H529.372Z" stroke="#000200" stroke-width="0.162"/>
<path fill-rule="evenodd" clip-rule="evenodd" d="M365.387 2.17523L385.659 2.19031L389.319 2.35596L391.081 2.53668L392.346 2.73248L393.853 3.0789L395.705 3.7717L396.654 4.26874L397.437 4.72055L398.1 5.17237L398.582 5.60915L399.064 6.25677L399.455 7.00982L399.952 8.19965L400.269 9.25395L400.645 11.2721L400.811 12.7782L400.871 13.471L400.931 14.435L400.991 18.4261L400.796 21.3028L400.404 23.8029L399.832 26.0319L399.109 27.8845L398.627 28.7731L398.085 29.5713L397.301 30.4599L396.714 30.9419L396.292 31.1979L396.307 31.469L397.045 31.8154L397.874 32.4179L398.777 33.3968L399.259 34.1348L400.193 36.2283L400.886 38.7586L401.383 42.5238L401.503 45.3703L401.413 48.9248L401.263 50.8827L401.052 52.9009L400.57 55.9884L400.133 58.1421L399.621 60.1754L399.094 61.8471L398.838 62.3894L398.476 63.0821L397.663 64.1364L397.226 64.5732L396.368 65.2359L395.554 65.6877L394.937 65.9739L394.048 66.3052L393.024 66.5612L392.181 66.7269L390.84 66.8775L389.635 66.998L388.159 67.0432H386.608L383.054 67.0583H365.402V2.17523H365.387ZM380.855 36.8608L381.397 36.4241L382.06 36.0777L382.798 35.897L383.475 35.8518L384.469 36.0174L385.057 36.2584L385.569 36.5747L385.976 36.9362L386.277 37.2976L386.518 37.6892L386.789 38.6832L386.804 39.7074V55.2805V55.883L386.774 56.2294L386.503 57.0426L386.141 57.5849L385.81 57.9463L385.132 58.4283L384.605 58.6542L383.988 58.8048L383.099 58.8349L382.466 58.7295L381.713 58.4434L381.307 58.2024L380.885 57.8409L380.554 57.4493L380.267 56.9824L380.026 56.2444L379.981 55.883V38.9845L380.026 38.4573L380.192 37.9151L380.478 37.3579L380.855 36.8608ZM381.141 10.4287L381.292 10.3383L381.472 10.2329L381.743 10.1124L382.24 9.94674L382.451 9.90156L382.888 9.8413H383.566L384.048 9.90156L384.439 10.007L385.132 10.2932L385.72 10.6847L386.382 11.483L386.563 11.9197L386.668 12.7029V17.5977V19.872V22.4625V24.315L386.683 26.8001V27.4628L386.623 28.0049L386.397 28.5923L386.051 29.0743L385.72 29.3906L385.042 29.8274L384.289 30.1135L383.626 30.234L382.677 30.2189L381.834 30.0081L380.87 29.496L380.433 29.0743L380.117 28.6224L379.876 27.9146L379.831 27.4326V20.9112V19.3298V17.4321V15.8959V12.8686V12.4921L379.921 11.9498L380.087 11.5432L380.433 11.0462L380.93 10.5793L381.141 10.4287Z" fill="#000200"/>
<path d="M365.387 2.17523L385.659 2.19031L389.319 2.35596L391.081 2.53668L392.346 2.73248L393.853 3.0789L395.705 3.7717L396.654 4.26874L397.437 4.72055L398.1 5.17237L398.582 5.60915L399.064 6.25677L399.455 7.00982L399.952 8.19965L400.269 9.25395L400.645 11.2721L400.811 12.7782L400.871 13.471L400.931 14.435L400.991 18.4261L400.796 21.3028L400.404 23.8029L399.832 26.0319L399.109 27.8845L398.627 28.7731L398.085 29.5713L397.301 30.4599L396.714 30.9419L396.292 31.1979L396.307 31.469L397.045 31.8154L397.874 32.4179L398.777 33.3968L399.259 34.1348L400.193 36.2283L400.886 38.7586L401.383 42.5238L401.503 45.3703L401.413 48.9248L401.263 50.8827L401.052 52.9009L400.57 55.9884L400.133 58.1421L399.621 60.1754L399.094 61.8471L398.838 62.3894L398.476 63.0821L397.663 64.1364L397.226 64.5732L396.368 65.2359L395.554 65.6877L394.937 65.9739L394.048 66.2902L393.024 66.5462L392.181 66.7119L390.84 66.8625L389.635 66.9679L388.159 67.0131H386.608L383.054 67.0281H365.402V2.17523H365.387ZM380.855 36.8759L381.397 36.4391L382.06 36.0927L382.798 35.897L383.475 35.8518L384.469 36.0024L385.057 36.2433L385.569 36.5596L385.976 36.9211L386.277 37.2826L386.518 37.6742L386.789 38.6682L386.804 39.6923V55.2655V55.8679L386.774 56.2294L386.503 57.0427L386.141 57.5849L385.81 57.9463L385.132 58.4283L384.605 58.6542L383.988 58.8048L383.099 58.8349L382.466 58.7295L381.713 58.4434L381.307 58.2024L380.885 57.8409L380.554 57.4493L380.267 56.9824L380.026 56.2444L379.981 55.883V38.9845L380.026 38.4573L380.192 37.9151L380.478 37.3579L380.855 36.8759ZM381.141 10.4287L381.292 10.3383L381.472 10.2329L381.743 10.1124L382.24 9.94674L382.451 9.90156L382.888 9.8413H383.566L384.048 9.90156L384.439 10.007L385.132 10.2932L385.72 10.6847L386.382 11.483L386.563 11.9197L386.668 12.7029V17.5977V19.872V22.4625V24.315L386.683 26.8001V27.4628L386.623 28.0049L386.397 28.5923L386.051 29.0743L385.72 29.3906L385.042 29.8274L384.289 30.1135L383.626 30.234L382.677 30.2189L381.834 30.0081L380.87 29.496L380.433 29.0743L380.117 28.6224L379.876 27.9146L379.831 27.4326V20.9112V19.3298V17.4321V15.8959V12.8686V12.4921L379.921 11.9498L380.087 11.5583L380.433 11.0612L380.93 10.6094L381.141 10.4287Z" stroke="#000200" stroke-width="0.162"/>
<path fill-rule="evenodd" clip-rule="evenodd" d="M636.245 31.5889C636.245 28.2604 636.2 24.6006 639.709 24.6006H640.327C643.008 24.6006 643.384 28.7273 643.384 31.3931V52.9606C643.384 55.536 642.902 58.5934 640.327 58.5934H639.107C636.426 58.5934 636.245 54.1353 636.245 51.4093V31.5889ZM621.787 31.5889V52.3732C621.787 61.0183 630.145 67.5096 639.303 67.5096H641.742C650.538 67.5096 657.828 60.1146 657.828 51.1984V31.0016C657.828 21.2721 650.056 14.6904 639.905 14.6904C628.971 14.6904 621.787 21.0613 621.787 31.5889Z" fill="#000200"/>
<path d="M636.245 31.5889C636.245 28.2604 636.2 24.6006 639.709 24.6006H640.327C643.008 24.6006 643.384 28.7273 643.384 31.3931V52.9606C643.384 55.5511 642.902 58.5934 640.327 58.5934H639.107C636.426 58.5934 636.245 54.1353 636.245 51.4093V31.5889ZM621.787 31.5889V52.3732C621.787 61.0183 630.145 67.5096 639.303 67.5096H641.742C650.538 67.5096 657.828 60.1146 657.828 51.1984V31.0016C657.828 21.2721 650.056 14.6904 639.905 14.6904C628.971 14.6904 621.787 21.0613 621.787 31.5889Z" stroke="#000200" stroke-width="0.162"/>
<path fill-rule="evenodd" clip-rule="evenodd" d="M600.069 29.9022C600.069 27.5226 599.602 23.5765 597.388 23.5765H595.324C593.547 23.5765 592.644 27.387 592.644 29.3148V33.4717C592.644 38.2611 592.854 43.0204 592.854 47.5237C592.854 52.2076 591.619 58.2019 596.364 58.2019C598.864 58.2019 600.084 55.5964 600.084 53.2619V29.9022H600.069ZM614.723 67.088H600.069V63.7293C598.608 64.1058 596.951 67.6904 592.237 67.6904H591.198C583.712 67.6904 578.2 61.1991 578.2 54.2409V27.3268C578.2 20.9861 583.757 13.8772 590.174 13.8772H592.237C596.921 13.8772 598.141 17.04 599.873 17.6425V2.4007H614.723V67.088Z" fill="#000200"/>
<path d="M600.069 29.9023C600.069 27.5226 599.602 23.5766 597.388 23.5766H595.324C593.547 23.5766 592.644 27.387 592.644 29.3149V33.4717C592.644 38.2611 592.854 43.0205 592.854 47.5237C592.854 52.2077 591.619 58.202 596.364 58.202C598.864 58.202 600.084 55.5964 600.084 53.2469V29.9023H600.069ZM614.723 67.1031H600.069V63.7445C598.608 64.121 596.951 67.7055 592.237 67.7055H591.198C583.712 67.7055 578.2 61.2142 578.2 54.256V27.3419C578.2 21.0012 583.757 13.8924 590.174 13.8924H592.237C596.921 13.8924 598.141 17.0552 599.873 17.6576V2.41583H614.723V67.1031Z" stroke="#000200" stroke-width="0.162"/>
<path fill-rule="evenodd" clip-rule="evenodd" d="M677.784 67.3289C674.907 67.3289 672.196 66.9373 669.651 66.1542C667.09 65.371 664.982 64.4673 663.31 63.413V50.5509H664.319C664.906 51.1081 665.554 51.7106 666.307 52.3733C667.045 53.051 668.069 53.7438 669.395 54.4668C670.524 55.1445 671.804 55.7018 673.22 56.1988C674.651 56.6657 676.202 56.9066 677.859 56.9066C679.576 56.9066 681.082 56.5753 682.392 55.9126C683.688 55.2349 684.35 54.1806 684.35 52.7347C684.35 51.5901 684.049 50.7467 683.447 50.1744C682.844 49.587 681.685 49.0297 679.937 48.5026C679.019 48.2164 677.844 47.9152 676.428 47.5688C675.012 47.2525 673.777 46.8609 672.678 46.4242C669.621 45.2343 667.331 43.4722 665.795 41.1377C664.259 38.8033 663.476 35.7308 663.476 31.9354C663.476 29.7666 663.882 27.7033 664.681 25.7755C665.479 23.8627 666.638 22.1457 668.205 20.6246C669.756 19.1486 671.669 17.9738 673.958 17.1003C676.232 16.2267 678.808 15.79 681.669 15.79C684.411 15.79 686.911 16.1364 689.2 16.8141C691.489 17.4919 693.417 18.3202 694.998 19.2691V31.6041H694.035C693.613 31.2125 692.965 30.6552 692.046 29.9775C691.143 29.2997 690.269 28.7123 689.411 28.2304C688.402 27.6581 687.257 27.1611 685.992 26.7845C684.742 26.408 683.447 26.2273 682.136 26.2273C680.389 26.2273 678.883 26.6038 677.678 27.3569C676.458 28.1099 675.856 29.1039 675.856 30.3691C675.856 31.4685 676.157 32.327 676.759 32.9746C677.362 33.6072 678.672 34.2398 680.69 34.8422C681.73 35.1585 682.934 35.4748 684.275 35.776C685.63 36.0923 686.926 36.4989 688.191 37.0261C690.992 38.1557 693.116 39.8274 694.547 41.9962C695.992 44.1951 696.715 47.1019 696.715 50.7166C696.715 53.0059 696.294 55.1897 695.435 57.2681C694.562 59.3315 693.357 61.0786 691.775 62.5094C690.104 64.0456 688.146 65.2354 685.902 66.0788C683.612 66.9072 680.916 67.3289 677.784 67.3289Z" fill="#000200"/>
<path d="M677.784 67.3289C674.907 67.3289 672.196 66.9373 669.651 66.1542C667.09 65.371 664.982 64.4673 663.31 63.413V50.5509H664.319C664.906 51.1081 665.554 51.7106 666.307 52.3733C667.045 53.036 668.069 53.7438 669.395 54.4668C670.524 55.1445 671.804 55.7018 673.22 56.1988C674.651 56.6657 676.202 56.9066 677.859 56.9066C679.576 56.9066 681.082 56.5753 682.392 55.9126C683.688 55.2349 684.35 54.1806 684.35 52.7347C684.35 51.5901 684.049 50.7467 683.447 50.1744C682.844 49.587 681.685 49.0297 679.937 48.5026C679.019 48.2164 677.844 47.9152 676.428 47.5688C675.012 47.2375 673.777 46.8609 672.678 46.4242C669.621 45.2343 667.331 43.4722 665.795 41.1377C664.259 38.8033 663.476 35.7308 663.476 31.9354C663.476 29.7666 663.882 27.7033 664.681 25.7755C665.479 23.8627 666.638 22.1457 668.205 20.6246C669.756 19.1486 671.669 17.9738 673.958 17.1003C676.232 16.2267 678.808 15.79 681.669 15.79C684.411 15.79 686.911 16.1364 689.2 16.8141C691.489 17.4919 693.417 18.3202 694.998 19.2691V31.6041H694.035C693.613 31.1974 692.965 30.6552 692.046 29.9775C691.143 29.2997 690.269 28.7123 689.411 28.2304C688.402 27.6581 687.257 27.1611 685.992 26.7845C684.742 26.408 683.447 26.2273 682.136 26.2273C680.389 26.2273 678.883 26.6038 677.678 27.3569C676.458 28.1099 675.856 29.1039 675.856 30.3691C675.856 31.4685 676.157 32.327 676.759 32.9746C677.362 33.6072 678.672 34.2398 680.69 34.8422C681.73 35.1585 682.934 35.4748 684.275 35.776C685.63 36.0923 686.926 36.4989 688.191 37.0261C690.992 38.1557 693.116 39.8274 694.547 41.9962C695.992 44.1951 696.715 47.1019 696.715 50.7166C696.715 53.0059 696.294 55.1897 695.435 57.2681C694.562 59.3315 693.357 61.0786 691.775 62.5094C690.104 64.0456 688.146 65.2354 685.902 66.0788C683.612 66.9072 680.916 67.3289 677.784 67.3289Z" stroke="#000200" stroke-width="0.162"/>
<path fill-rule="evenodd" clip-rule="evenodd" d="M554.238 58.5935H553.214C551.286 58.5935 550.156 57.3735 550.156 55.4909V50.8219C550.156 46.5145 553.681 44.2403 557.28 43.442C557.295 47.8399 558.365 58.5935 554.238 58.5935ZM537.942 31.3932H550.985V28.4864C550.985 26.8146 551.994 24.7964 553.635 24.7964H554.855C557.973 24.7964 557.295 30.0377 557.295 33.1403C555.051 33.321 544.719 37.7038 542.867 38.8033C538.695 41.2733 535.713 45.2644 535.713 51.5901V57.0271C535.713 61.9822 541.09 67.9012 546.707 67.9012H547.927C553.575 67.9012 554.253 65.9583 557.295 64.0154V67.118H571.754V27.3117C571.754 20.5944 564.178 15.0821 557.099 15.0821H553.229C544.78 15.0821 537.942 22.7632 537.942 31.3932Z" fill="#000200"/>
<path d="M554.238 58.5935H553.214C551.286 58.5935 550.156 57.3886 550.156 55.4909V50.822C550.156 46.5295 553.681 44.2403 557.28 43.442C557.295 47.8399 558.365 58.5935 554.238 58.5935ZM537.942 31.3932H550.985V28.4864C550.985 26.8146 551.994 24.7964 553.635 24.7964H554.855C557.973 24.7964 557.295 30.0377 557.295 33.1403C555.051 33.321 544.719 37.7038 542.867 38.8033C538.695 41.2733 535.713 45.2644 535.713 51.5901V57.0271C535.713 61.9822 541.09 67.9012 546.707 67.9012H547.927C553.575 67.9012 554.253 65.9583 557.295 64.0155V67.118H571.754V27.3117C571.754 20.5944 564.178 15.0821 557.099 15.0821H553.229C544.78 15.0821 537.942 22.7632 537.942 31.3932Z" stroke="#000200" stroke-width="0.162"/>
<path fill-rule="evenodd" clip-rule="evenodd" d="M444.684 12.3861H430.3L430.15 2.0392L444.684 2.00909V12.3861Z" fill="#000200"/>
<path d="M444.684 12.3861H430.3L430.15 2.0392L444.684 2.00909V12.3861Z" stroke="#000200" stroke-width="0.162"/>
<path fill-rule="evenodd" clip-rule="evenodd" d="M444.789 67.0579L430.255 66.9826L430.195 17.1155H444.819L444.789 67.0579Z" fill="#000200"/>
<path d="M444.789 67.0579L430.255 66.9826L430.195 17.1155H444.819L444.789 67.0579Z" stroke="#000200" stroke-width="0.162"/>
<path fill-rule="evenodd" clip-rule="evenodd" d="M423.116 67.1181L408.808 66.9825V2.15973L423.116 2.18988V67.1181Z" fill="#000200"/>
<path d="M423.116 67.1181L408.808 66.9825V2.15973L423.116 2.18988V67.1181Z" stroke="#000200" stroke-width="0.162"/>
<path fill-rule="evenodd" clip-rule="evenodd" d="M451.672 27.5678V66.9977H465.935V24.661C466.929 24.4502 467.742 23.6971 469.188 23.6971H470.408C471.673 23.6971 472.848 25.5948 472.848 27.1913V67.2085H487.517V27.7636C487.517 18.9378 479.415 14.6605 469.896 14.7057C465.272 14.5551 451.883 14.1183 451.853 16.257C451.838 16.7841 451.838 16.7088 451.838 17.1757C451.717 26.6491 451.973 23.9381 451.672 27.5678Z" fill="#000200"/>
<path d="M451.672 27.5678V66.9977H465.935V24.661C466.929 24.4502 467.742 23.6971 469.188 23.6971H470.408C471.673 23.6971 472.848 25.5948 472.848 27.1913V67.2085H487.517V27.7636C487.517 18.9378 479.415 14.6605 469.896 14.7057C465.272 14.5551 451.883 14.1183 451.853 16.257C451.838 16.7841 451.838 16.7088 451.838 17.1757C451.717 26.6491 451.973 23.9381 451.672 27.5678Z" stroke="#000200" stroke-width="0.162"/>
<path fill-rule="evenodd" clip-rule="evenodd" d="M514.793 29.7968C514.793 27.4322 514.311 23.5013 512.127 23.5013H510.079C508.302 23.5013 507.413 27.2967 507.413 29.2095V33.3513C507.413 38.1256 507.624 42.8547 507.624 47.3429C507.624 51.9968 506.389 57.976 511.118 57.976C513.603 57.976 514.823 55.4006 514.823 53.0511V29.7968H514.793ZM529.372 66.832H514.793V63.4884C513.332 63.8649 511.69 67.4194 506.991 67.4194H505.967C498.512 67.4194 493.03 60.9581 493.03 54.0301V27.2365C493.03 20.9259 498.572 13.8472 504.943 13.8472H506.991C511.66 13.8472 512.88 16.9949 514.597 17.5823V2.41583H529.387V66.832H529.372Z" fill="#000200"/>
<path d="M514.793 29.7968C514.793 27.4322 514.311 23.5013 512.127 23.5013H510.079C508.302 23.5013 507.413 27.2967 507.413 29.2095V33.3513C507.413 38.1256 507.624 42.8547 507.624 47.3429C507.624 51.9968 506.389 57.976 511.118 57.976C513.603 57.976 514.823 55.4006 514.823 53.0511V29.7968H514.793ZM529.372 66.832H514.793V63.4884C513.332 63.8649 511.69 67.4194 506.991 67.4194H505.967C498.512 67.4194 493.03 60.9581 493.03 54.0301V27.2365C493.03 20.9259 498.572 13.8472 504.943 13.8472H506.991C511.66 13.8472 512.88 16.9949 514.597 17.5823V2.41583H529.387V66.832H529.372Z" stroke="#000200" stroke-width="0.162"/>
<path fill-rule="evenodd" clip-rule="evenodd" d="M365.387 2.17523L385.659 2.19031L389.319 2.35596L391.081 2.53668L392.346 2.73248L393.853 3.0789L395.705 3.7717L396.654 4.26874L397.437 4.72055L398.1 5.17237L398.582 5.60915L399.064 6.25677L399.455 7.00982L399.952 8.19965L400.269 9.25395L400.645 11.2721L400.811 12.7782L400.871 13.471L400.931 14.435L400.991 18.4261L400.796 21.3028L400.404 23.8029L399.832 26.0319L399.109 27.8845L398.627 28.7731L398.085 29.5713L397.301 30.4599L396.714 30.9419L396.292 31.1979L396.307 31.469L397.045 31.8154L397.874 32.4179L398.777 33.3968L399.259 34.1348L400.193 36.2283L400.886 38.7586L401.383 42.5238L401.503 45.3703L401.413 48.9248L401.263 50.8827L401.052 52.9009L400.57 55.9884L400.133 58.1421L399.621 60.1754L399.094 61.8471L398.838 62.3894L398.476 63.0821L397.663 64.1364L397.226 64.5732L396.368 65.2359L395.554 65.6877L394.937 65.9739L394.048 66.3052L393.024 66.5612L392.181 66.7269L390.84 66.8775L389.635 66.998L388.159 67.0432H386.608L383.054 67.0583H365.402V2.17523H365.387ZM380.855 36.8608L381.397 36.4241L382.06 36.0777L382.798 35.897L383.475 35.8518L384.469 36.0174L385.057 36.2584L385.569 36.5747L385.976 36.9362L386.277 37.2976L386.518 37.6892L386.789 38.6832L386.804 39.7074V55.2805V55.883L386.774 56.2294L386.503 57.0426L386.141 57.5849L385.81 57.9463L385.132 58.4283L384.605 58.6542L383.988 58.8048L383.099 58.8349L382.466 58.7295L381.713 58.4434L381.307 58.2024L380.885 57.8409L380.554 57.4493L380.267 56.9824L380.026 56.2444L379.981 55.883V38.9845L380.026 38.4573L380.192 37.9151L380.478 37.3579L380.855 36.8608ZM381.141 10.4287L381.292 10.3383L381.472 10.2329L381.743 10.1124L382.24 9.94674L382.451 9.90156L382.888 9.8413H383.566L384.048 9.90156L384.439 10.007L385.132 10.2932L385.72 10.6847L386.382 11.483L386.563 11.9197L386.668 12.7029V17.5977V19.872V22.4625V24.315L386.683 26.8001V27.4628L386.623 28.0049L386.397 28.5923L386.051 29.0743L385.72 29.3906L385.042 29.8274L384.289 30.1135L383.626 30.234L382.677 30.2189L381.834 30.0081L380.87 29.496L380.433 29.0743L380.117 28.6224L379.876 27.9146L379.831 27.4326V20.9112V19.3298V17.4321V15.8959V12.8686V12.4921L379.921 11.9498L380.087 11.5432L380.433 11.0462L380.93 10.5793L381.141 10.4287Z" fill="#000200"/>
<path d="M365.387 2.17523L385.659 2.19031L389.319 2.35596L391.081 2.53668L392.346 2.73248L393.853 3.0789L395.705 3.7717L396.654 4.26874L397.437 4.72055L398.1 5.17237L398.582 5.60915L399.064 6.25677L399.455 7.00982L399.952 8.19965L400.269 9.25395L400.645 11.2721L400.811 12.7782L400.871 13.471L400.931 14.435L400.991 18.4261L400.796 21.3028L400.404 23.8029L399.832 26.0319L399.109 27.8845L398.627 28.7731L398.085 29.5713L397.301 30.4599L396.714 30.9419L396.292 31.1979L396.307 31.469L397.045 31.8154L397.874 32.4179L398.777 33.3968L399.259 34.1348L400.193 36.2283L400.886 38.7586L401.383 42.5238L401.503 45.3703L401.413 48.9248L401.263 50.8827L401.052 52.9009L400.57 55.9884L400.133 58.1421L399.621 60.1754L399.094 61.8471L398.838 62.3894L398.476 63.0821L397.663 64.1364L397.226 64.5732L396.368 65.2359L395.554 65.6877L394.937 65.9739L394.048 66.2902L393.024 66.5462L392.181 66.7119L390.84 66.8625L389.635 66.9679L388.159 67.0131H386.608L383.054 67.0281H365.402V2.17523H365.387ZM380.855 36.8759L381.397 36.4391L382.06 36.0927L382.798 35.897L383.475 35.8518L384.469 36.0024L385.057 36.2433L385.569 36.5596L385.976 36.9211L386.277 37.2826L386.518 37.6742L386.789 38.6682L386.804 39.6923V55.2655V55.8679L386.774 56.2294L386.503 57.0427L386.141 57.5849L385.81 57.9463L385.132 58.4283L384.605 58.6542L383.988 58.8048L383.099 58.8349L382.466 58.7295L381.713 58.4434L381.307 58.2024L380.885 57.8409L380.554 57.4493L380.267 56.9824L380.026 56.2444L379.981 55.883V38.9845L380.026 38.4573L380.192 37.9151L380.478 37.3579L380.855 36.8759ZM381.141 10.4287L381.292 10.3383L381.472 10.2329L381.743 10.1124L382.24 9.94674L382.451 9.90156L382.888 9.8413H383.566L384.048 9.90156L384.439 10.007L385.132 10.2932L385.72 10.6847L386.382 11.483L386.563 11.9197L386.668 12.7029V17.5977V19.872V22.4625V24.315L386.683 26.8001V27.4628L386.623 28.0049L386.397 28.5923L386.051 29.0743L385.72 29.3906L385.042 29.8274L384.289 30.1135L383.626 30.234L382.677 30.2189L381.834 30.0081L380.87 29.496L380.433 29.0743L380.117 28.6224L379.876 27.9146L379.831 27.4326V20.9112V19.3298V17.4321V15.8959V12.8686V12.4921L379.921 11.9498L380.087 11.5583L380.433 11.0612L380.93 10.6094L381.141 10.4287Z" stroke="#000200" stroke-width="0.162"/>
<path fill-rule="evenodd" clip-rule="evenodd" d="M636.245 31.5889C636.245 28.2604 636.2 24.6006 639.709 24.6006H640.327C643.008 24.6006 643.384 28.7273 643.384 31.3931V52.9606C643.384 55.536 642.902 58.5934 640.327 58.5934H639.107C636.426 58.5934 636.245 54.1353 636.245 51.4093V31.5889ZM621.787 31.5889V52.3732C621.787 61.0183 630.145 67.5096 639.303 67.5096H641.742C650.538 67.5096 657.828 60.1146 657.828 51.1984V31.0016C657.828 21.2721 650.056 14.6904 639.905 14.6904C628.971 14.6904 621.787 21.0613 621.787 31.5889Z" fill="#000200"/>
<path d="M636.245 31.5889C636.245 28.2604 636.2 24.6006 639.709 24.6006H640.327C643.008 24.6006 643.384 28.7273 643.384 31.3931V52.9606C643.384 55.5511 642.902 58.5934 640.327 58.5934H639.107C636.426 58.5934 636.245 54.1353 636.245 51.4093V31.5889ZM621.787 31.5889V52.3732C621.787 61.0183 630.145 67.5096 639.303 67.5096H641.742C650.538 67.5096 657.828 60.1146 657.828 51.1984V31.0016C657.828 21.2721 650.056 14.6904 639.905 14.6904C628.971 14.6904 621.787 21.0613 621.787 31.5889Z" stroke="#000200" stroke-width="0.162"/>
<path fill-rule="evenodd" clip-rule="evenodd" d="M600.069 29.9022C600.069 27.5226 599.602 23.5765 597.388 23.5765H595.324C593.547 23.5765 592.644 27.387 592.644 29.3148V33.4717C592.644 38.2611 592.854 43.0204 592.854 47.5237C592.854 52.2076 591.619 58.2019 596.364 58.2019C598.864 58.2019 600.084 55.5964 600.084 53.2619V29.9022H600.069ZM614.723 67.088H600.069V63.7293C598.608 64.1058 596.951 67.6904 592.237 67.6904H591.198C583.712 67.6904 578.2 61.1991 578.2 54.2409V27.3268C578.2 20.9861 583.757 13.8772 590.174 13.8772H592.237C596.921 13.8772 598.141 17.04 599.873 17.6425V2.4007H614.723V67.088Z" fill="#000200"/>
<path d="M600.069 29.9023C600.069 27.5226 599.602 23.5766 597.388 23.5766H595.324C593.547 23.5766 592.644 27.387 592.644 29.3149V33.4717C592.644 38.2611 592.854 43.0205 592.854 47.5237C592.854 52.2077 591.619 58.202 596.364 58.202C598.864 58.202 600.084 55.5964 600.084 53.2469V29.9023H600.069ZM614.723 67.1031H600.069V63.7445C598.608 64.121 596.951 67.7055 592.237 67.7055H591.198C583.712 67.7055 578.2 61.2142 578.2 54.256V27.3419C578.2 21.0012 583.757 13.8924 590.174 13.8924H592.237C596.921 13.8924 598.141 17.0552 599.873 17.6576V2.41583H614.723V67.1031Z" stroke="#000200" stroke-width="0.162"/>
<path fill-rule="evenodd" clip-rule="evenodd" d="M677.784 67.3289C674.907 67.3289 672.196 66.9373 669.651 66.1542C667.09 65.371 664.982 64.4673 663.31 63.413V50.5509H664.319C664.906 51.1081 665.554 51.7106 666.307 52.3733C667.045 53.051 668.069 53.7438 669.395 54.4668C670.524 55.1445 671.804 55.7018 673.22 56.1988C674.651 56.6657 676.202 56.9066 677.859 56.9066C679.576 56.9066 681.082 56.5753 682.392 55.9126C683.688 55.2349 684.35 54.1806 684.35 52.7347C684.35 51.5901 684.049 50.7467 683.447 50.1744C682.844 49.587 681.685 49.0297 679.937 48.5026C679.019 48.2164 677.844 47.9152 676.428 47.5688C675.012 47.2525 673.777 46.8609 672.678 46.4242C669.621 45.2343 667.331 43.4722 665.795 41.1377C664.259 38.8033 663.476 35.7308 663.476 31.9354C663.476 29.7666 663.882 27.7033 664.681 25.7755C665.479 23.8627 666.638 22.1457 668.205 20.6246C669.756 19.1486 671.669 17.9738 673.958 17.1003C676.232 16.2267 678.808 15.79 681.669 15.79C684.411 15.79 686.911 16.1364 689.2 16.8141C691.489 17.4919 693.417 18.3202 694.998 19.2691V31.6041H694.035C693.613 31.2125 692.965 30.6552 692.046 29.9775C691.143 29.2997 690.269 28.7123 689.411 28.2304C688.402 27.6581 687.257 27.1611 685.992 26.7845C684.742 26.408 683.447 26.2273 682.136 26.2273C680.389 26.2273 678.883 26.6038 677.678 27.3569C676.458 28.1099 675.856 29.1039 675.856 30.3691C675.856 31.4685 676.157 32.327 676.759 32.9746C677.362 33.6072 678.672 34.2398 680.69 34.8422C681.73 35.1585 682.934 35.4748 684.275 35.776C685.63 36.0923 686.926 36.4989 688.191 37.0261C690.992 38.1557 693.116 39.8274 694.547 41.9962C695.992 44.1951 696.715 47.1019 696.715 50.7166C696.715 53.0059 696.294 55.1897 695.435 57.2681C694.562 59.3315 693.357 61.0786 691.775 62.5094C690.104 64.0456 688.146 65.2354 685.902 66.0788C683.612 66.9072 680.916 67.3289 677.784 67.3289Z" fill="#000200"/>
<path d="M677.784 67.3289C674.907 67.3289 672.196 66.9373 669.651 66.1542C667.09 65.371 664.982 64.4673 663.31 63.413V50.5509H664.319C664.906 51.1081 665.554 51.7106 666.307 52.3733C667.045 53.036 668.069 53.7438 669.395 54.4668C670.524 55.1445 671.804 55.7018 673.22 56.1988C674.651 56.6657 676.202 56.9066 677.859 56.9066C679.576 56.9066 681.082 56.5753 682.392 55.9126C683.688 55.2349 684.35 54.1806 684.35 52.7347C684.35 51.5901 684.049 50.7467 683.447 50.1744C682.844 49.587 681.685 49.0297 679.937 48.5026C679.019 48.2164 677.844 47.9152 676.428 47.5688C675.012 47.2375 673.777 46.8609 672.678 46.4242C669.621 45.2343 667.331 43.4722 665.795 41.1377C664.259 38.8033 663.476 35.7308 663.476 31.9354C663.476 29.7666 663.882 27.7033 664.681 25.7755C665.479 23.8627 666.638 22.1457 668.205 20.6246C669.756 19.1486 671.669 17.9738 673.958 17.1003C676.232 16.2267 678.808 15.79 681.669 15.79C684.411 15.79 686.911 16.1364 689.2 16.8141C691.489 17.4919 693.417 18.3202 694.998 19.2691V31.6041H694.035C693.613 31.1974 692.965 30.6552 692.046 29.9775C691.143 29.2997 690.269 28.7123 689.411 28.2304C688.402 27.6581 687.257 27.1611 685.992 26.7845C684.742 26.408 683.447 26.2273 682.136 26.2273C680.389 26.2273 678.883 26.6038 677.678 27.3569C676.458 28.1099 675.856 29.1039 675.856 30.3691C675.856 31.4685 676.157 32.327 676.759 32.9746C677.362 33.6072 678.672 34.2398 680.69 34.8422C681.73 35.1585 682.934 35.4748 684.275 35.776C685.63 36.0923 686.926 36.4989 688.191 37.0261C690.992 38.1557 693.116 39.8274 694.547 41.9962C695.992 44.1951 696.715 47.1019 696.715 50.7166C696.715 53.0059 696.294 55.1897 695.435 57.2681C694.562 59.3315 693.357 61.0786 691.775 62.5094C690.104 64.0456 688.146 65.2354 685.902 66.0788C683.612 66.9072 680.916 67.3289 677.784 67.3289Z" stroke="#000200" stroke-width="0.162"/>
<path fill-rule="evenodd" clip-rule="evenodd" d="M699.08 5.47314C699.08 3.47001 701.098 1.78316 703.146 1.78316C705.571 1.78316 707.424 3.53027 707.424 5.86474V6.25629C707.424 7.68709 705.631 9.75047 704.171 9.75047H702.951C700.661 9.75047 699.08 8.09377 699.08 5.86474V5.47314ZM698.071 5.27733V6.06054C698.071 8.51549 700.571 10.7144 703.162 10.7144H703.568C705.857 10.7144 708.252 8.57573 708.252 6.43707V4.88573C708.252 3.31938 705.812 1 704.171 1H702.333C700.556 1.01506 698.071 3.5905 698.071 5.27733Z" fill="#000200"/>
<path d="M699.08 5.47314C699.08 3.47001 701.098 1.78316 703.146 1.78316C705.571 1.78316 707.424 3.53027 707.424 5.86474V6.25629C707.424 7.68709 705.631 9.75047 704.171 9.75047H702.951C700.661 9.75047 699.08 8.09377 699.08 5.86474V5.47314ZM698.071 5.27733V6.06054C698.071 8.51549 700.571 10.7144 703.162 10.7144H703.568C705.857 10.7144 708.252 8.57573 708.252 6.43706V4.88573C708.252 3.31938 705.812 1 704.171 1H702.333C700.556 1.01506 698.071 3.60556 698.071 5.27733Z" stroke="#000200" stroke-width="0.162"/>
<path fill-rule="evenodd" clip-rule="evenodd" d="M700.706 9.01248V2.38562H703.553C704.276 2.38562 704.788 2.44586 705.104 2.56635C705.421 2.68683 705.692 2.89766 705.887 3.19888C706.083 3.50011 706.174 3.84651 706.174 4.2381C706.174 4.73512 706.023 5.14178 705.737 5.47312C705.436 5.7894 704.999 6.00025 704.412 6.07555C704.713 6.24122 704.954 6.43701 705.134 6.6328C705.315 6.8286 705.586 7.1901 705.903 7.70217L706.716 8.9974H705.104L704.125 7.55155C703.779 7.03948 703.538 6.72317 703.417 6.58762C703.282 6.45207 703.146 6.36172 703.011 6.31653C702.86 6.27135 702.634 6.24125 702.333 6.24125H702.062V9.01248H700.706ZM702.062 5.18695H703.056C703.704 5.18695 704.11 5.15685 704.276 5.11167C704.442 5.05142 704.562 4.96105 704.652 4.8255C704.743 4.70502 704.788 4.52426 704.788 4.32846C704.788 4.10255 704.728 3.92184 704.607 3.78629C704.487 3.65074 704.321 3.56035 704.095 3.53023C703.99 3.51517 703.658 3.50012 703.116 3.50012H702.062V5.18695Z" fill="#000200"/>
<path d="M700.706 9.01248V2.38562H703.553C704.276 2.38562 704.788 2.44586 705.104 2.56635C705.421 2.68683 705.692 2.89766 705.887 3.19888C706.083 3.50011 706.174 3.84651 706.174 4.2381C706.174 4.73512 706.023 5.14178 705.737 5.47312C705.436 5.7894 704.999 6.00025 704.412 6.07555C704.713 6.24122 704.954 6.43701 705.134 6.6328C705.315 6.8286 705.586 7.1901 705.903 7.70217L706.716 8.9974H705.104L704.125 7.55155C703.779 7.03948 703.538 6.72317 703.417 6.58762C703.282 6.45207 703.146 6.36172 703.011 6.31653C702.86 6.27135 702.634 6.24125 702.333 6.24125H702.062V8.9974H700.706V9.01248ZM702.062 5.18695H703.056C703.704 5.18695 704.11 5.17191 704.276 5.11167C704.442 5.05142 704.562 4.96105 704.652 4.8255C704.743 4.68995 704.788 4.52426 704.788 4.32846C704.788 4.10255 704.728 3.92184 704.607 3.78629C704.487 3.65074 704.321 3.56035 704.095 3.53023C703.99 3.51517 703.658 3.50012 703.116 3.50012H702.062V5.18695Z" stroke="#000200" stroke-width="0.162"/>
<path fill-rule="evenodd" clip-rule="evenodd" d="M699.08 5.47314C699.08 3.47001 701.098 1.78316 703.146 1.78316C705.571 1.78316 707.424 3.53027 707.424 5.86474V6.25629C707.424 7.68709 705.631 9.75047 704.171 9.75047H702.951C700.661 9.75047 699.08 8.09377 699.08 5.86474V5.47314ZM698.071 5.27733V6.06054C698.071 8.51549 700.571 10.7144 703.162 10.7144H703.568C705.857 10.7144 708.252 8.57573 708.252 6.43707V4.88573C708.252 3.31938 705.812 1 704.171 1H702.333C700.556 1.01506 698.071 3.5905 698.071 5.27733Z" fill="#000200"/>
<path fill-rule="evenodd" clip-rule="evenodd" d="M700.706 9.01248V2.38562H703.553C704.276 2.38562 704.788 2.44586 705.104 2.56635C705.421 2.68683 705.692 2.89766 705.887 3.19888C706.083 3.50011 706.174 3.84651 706.174 4.2381C706.174 4.73512 706.023 5.14178 705.737 5.47312C705.436 5.7894 704.999 6.00025 704.412 6.07555C704.713 6.24122 704.954 6.43701 705.134 6.6328C705.315 6.8286 705.586 7.1901 705.903 7.70217L706.716 8.9974H705.104L704.125 7.55155C703.779 7.03948 703.538 6.72317 703.417 6.58762C703.282 6.45207 703.146 6.36172 703.011 6.31653C702.86 6.27135 702.634 6.24125 702.333 6.24125H702.062V9.01248H700.706ZM702.062 5.18695H703.056C703.704 5.18695 704.11 5.15685 704.276 5.11167C704.442 5.05142 704.562 4.96105 704.652 4.8255C704.743 4.70502 704.788 4.52426 704.788 4.32846C704.788 4.10255 704.728 3.92184 704.607 3.78629C704.487 3.65074 704.321 3.56035 704.095 3.53023C703.99 3.51517 703.658 3.50012 703.116 3.50012H702.062V5.18695Z" fill="#000200"/>
<path d="M699.08 5.47314C699.08 3.47001 701.098 1.78316 703.146 1.78316C705.571 1.78316 707.424 3.53027 707.424 5.86474V6.25629C707.424 7.68709 705.631 9.75047 704.171 9.75047H702.951C700.661 9.75047 699.08 8.09377 699.08 5.86474V5.47314ZM698.071 5.27733V6.06054C698.071 8.51549 700.571 10.7144 703.162 10.7144H703.568C705.857 10.7144 708.252 8.57573 708.252 6.43706V4.88573C708.252 3.31938 705.812 1 704.171 1H702.333C700.556 1.01506 698.071 3.60556 698.071 5.27733Z" stroke="#000200" stroke-width="0.162"/>
<path d="M700.706 9.01248V2.38562H703.553C704.276 2.38562 704.788 2.44586 705.104 2.56635C705.421 2.68683 705.692 2.89766 705.887 3.19888C706.083 3.50011 706.174 3.84651 706.174 4.2381C706.174 4.73512 706.023 5.14178 705.737 5.47312C705.436 5.7894 704.999 6.00025 704.412 6.07555C704.713 6.24122 704.954 6.43701 705.134 6.6328C705.315 6.8286 705.586 7.1901 705.903 7.70217L706.716 8.9974H705.104L704.125 7.55155C703.779 7.03948 703.538 6.72317 703.417 6.58762C703.282 6.45207 703.146 6.36172 703.011 6.31653C702.86 6.27135 702.634 6.24125 702.333 6.24125H702.062V8.9974H700.706V9.01248ZM702.062 5.18695H703.056C703.704 5.18695 704.11 5.17191 704.276 5.11167C704.442 5.05142 704.562 4.96105 704.652 4.8255C704.743 4.68995 704.788 4.52426 704.788 4.32846C704.788 4.10255 704.728 3.92184 704.607 3.78629C704.487 3.65074 704.321 3.56035 704.095 3.53023C703.99 3.51517 703.658 3.50012 703.116 3.50012H702.062V5.18695Z" stroke="#000200" stroke-width="0.162"/>
</svg>
