<svg width="550" height="126" viewBox="0 0 550 126" fill="none" xmlns="http://www.w3.org/2000/svg">
<path d="M241.048 40.7536C238.9 37.8348 235.315 36.374 230.293 36.374C228.691 36.374 227.344 36.521 226.253 36.812V68.8919C226.907 69.0389 227.853 69.1106 229.092 69.1106C235.133 69.1106 239.173 67.506 241.211 64.2932C243.249 61.0823 244.269 57.0313 244.269 52.1401C244.269 47.4698 243.194 43.6734 241.048 40.7536ZM256.062 33.8558C260.866 37.9444 263.268 44.1475 263.268 52.4687C263.268 57.3598 262.067 61.7201 259.665 65.5525C257.263 69.3845 253.622 72.3954 248.746 74.5853C243.868 76.775 237.899 77.8698 230.838 77.8698H226.253V87.5047C226.253 90.425 226.58 92.615 227.235 94.074C227.89 95.5348 229.037 96.5372 230.675 97.0848C232.313 97.6324 234.805 97.906 238.154 97.906C238.154 99.2198 237.936 100.498 237.499 101.738C237.063 102.98 236.479 104.037 235.752 104.913H203.977C203.175 104.037 202.558 102.98 202.121 101.738C201.684 100.498 201.466 99.2198 201.466 97.906C203.94 97.906 205.705 97.4868 206.761 96.6467C207.816 95.8088 208.345 94.4025 208.345 92.4316V40.9726C208.345 38.9296 207.816 37.4877 206.761 36.6476C205.705 35.8093 203.94 35.3887 201.466 35.3887C201.466 32.908 202.266 30.6089 203.868 28.4905C208.744 28.4905 215.369 28.3094 223.741 27.9433C227.962 27.7978 230.729 27.7243 232.039 27.7243C243.249 27.7243 251.257 29.7687 256.062 33.8558Z" fill="#03AB6F"/>
<path d="M300.174 94.0701C301.411 91.1514 302.03 85.749 302.03 77.8659C302.03 71.2251 301.703 66.1148 301.047 62.5375C300.392 58.962 299.481 56.5159 298.317 55.202C297.152 53.8882 295.659 53.2311 293.84 53.2311C291.292 53.2311 289.381 54.6923 288.108 57.6107C286.834 60.5309 286.197 66.0053 286.197 74.0339C286.197 80.6031 286.525 85.6584 287.18 89.1979C287.835 92.7392 288.763 95.1649 289.964 96.4788C291.165 97.7926 292.675 98.4497 294.496 98.4497C297.043 98.4497 298.935 96.9904 300.174 94.0701ZM274.405 98.7233C269.6 93.651 267.198 86.4061 267.198 76.9902C267.198 70.2754 268.344 64.546 270.637 59.8007C272.93 55.0565 276.151 51.4795 280.301 49.0705C284.45 46.6619 289.255 45.4575 294.714 45.4575C299.955 45.4575 304.559 46.6073 308.527 48.9064C312.494 51.2056 315.587 54.5828 317.81 59.034C320.027 63.4872 321.138 68.8881 321.138 75.2382C321.138 81.881 319.99 87.5384 317.699 92.2091C315.406 96.8808 312.185 100.403 308.036 102.774C303.886 105.146 299.082 106.333 293.622 106.333C285.614 106.333 279.209 103.798 274.405 98.7233Z" fill="#03AB6F"/>
<path d="M333.149 34.8411C333.149 33.0175 332.62 31.6487 331.565 30.7351C330.509 29.8233 328.562 29.3667 325.722 29.3667V24.9871C328.343 23.5281 331.657 22.2874 335.659 21.2646C339.662 20.2433 342.901 19.7317 345.378 19.7317C347.126 19.7317 348.362 20.0981 349.092 20.8265C349.817 21.5571 350.184 22.835 350.184 24.6589V92.9792C350.184 95.2423 350.636 96.8112 351.546 97.6869C352.457 98.5631 354.005 99.0008 356.189 99.0008C356.189 101.045 355.315 103.016 353.568 104.913H329.654C327.981 103.09 327.144 101.119 327.144 99.0008C329.254 99.0008 330.783 98.546 331.731 97.6324C332.675 96.7206 333.149 95.1688 333.149 92.9792V34.8411Z" fill="#03AB6F"/>
<path d="M383.864 35.0052C381.935 36.8666 379.369 37.7973 376.167 37.7973C373.038 37.7973 370.543 36.8666 368.688 35.0052C366.833 33.1441 365.904 30.6445 365.904 27.5052C365.904 24.4398 366.866 21.9592 368.799 20.0602C370.724 18.1631 373.257 17.2135 376.385 17.2135C379.514 17.2135 382.028 18.1631 383.92 20.0602C385.812 21.9592 386.759 24.4398 386.759 27.5052C386.759 30.6445 385.793 33.1441 383.864 35.0052ZM384.686 93.0887C384.686 95.2063 385.212 96.7206 386.267 97.6324C387.322 98.546 388.944 99.0008 391.128 99.0008C391.128 101.264 390.288 103.235 388.614 104.913H363.937C362.264 103.235 361.427 101.264 361.427 99.0008C363.612 99.0008 365.193 98.546 366.177 97.6324C367.159 96.7206 367.651 95.1688 367.651 92.9792V61.2278C367.651 59.1849 367.159 57.724 366.177 56.8482C365.193 55.9721 363.282 55.5344 360.442 55.5344V50.7167C362.19 49.6219 365.156 48.4722 369.343 47.2678C373.527 46.0635 377.078 45.4613 379.988 45.4613C381.665 45.4613 382.864 45.8445 383.594 46.6111C384.32 47.3774 384.686 48.6741 384.686 50.4977V93.0887Z" fill="#03AB6F"/>
<path d="M429.671 60.3502C427.486 57.1393 424.609 55.5329 421.044 55.5329C419.881 55.5329 418.859 55.7519 417.989 56.1896V97.0287C419.226 97.7589 420.607 98.1235 422.136 98.1235C425.339 98.1235 427.942 96.2621 429.945 92.5396C431.944 88.8171 432.947 83.2332 432.947 75.7882C432.947 68.7088 431.855 63.563 429.671 60.3502ZM417.989 105.897V113.89C417.989 115.861 418.697 117.356 420.118 118.379C421.536 119.4 423.154 119.912 424.976 119.912C424.976 122.101 424.139 124.034 422.466 125.715H398.333C396.586 123.963 395.712 122.028 395.712 119.912C397.822 119.912 399.207 119.474 399.862 118.598C400.518 117.722 400.843 116.151 400.843 113.89V61.445C400.843 59.4744 400.299 58.07 399.207 57.2299C398.115 56.3916 396.223 55.9706 393.527 55.9706V51.0438C395.856 49.6579 398.826 48.435 402.428 47.3759C406.03 46.3186 408.815 45.7884 410.781 45.7884C412.31 45.7884 413.546 46.0995 414.494 46.7188C415.438 47.3399 416.131 48.4896 416.568 50.1676C419.552 47.2493 423.954 45.7884 429.782 45.7884C433.784 45.7884 437.46 46.8112 440.807 48.8538C444.154 50.8983 446.831 53.9829 448.834 58.1057C450.837 62.2302 451.837 67.248 451.837 73.1605C451.837 79.9484 450.526 85.8248 447.905 90.788C445.287 95.7524 441.718 99.5469 437.205 102.175C432.692 104.802 427.705 106.116 422.247 106.116C421.592 106.116 420.17 106.043 417.989 105.897Z" fill="#03AB6F"/>
<path d="M478.807 56.8997C477.278 59.4179 476.441 63.633 476.297 69.5455H487.326C488.489 69.5455 489.251 69.1453 489.618 68.3412C489.981 67.5389 490.162 66.2986 490.162 64.6187C490.162 60.3126 489.655 57.3203 488.637 55.6408C487.615 53.9624 486.234 53.1223 484.486 53.1223C482.228 53.1223 480.336 54.3815 478.807 56.8997ZM502.614 89.3631C503.195 89.9478 503.702 90.8239 504.139 91.9908C504.576 93.1591 504.794 94.1804 504.794 95.0561C504.794 96.37 503.921 97.8858 502.177 99.5998C500.429 101.316 498.008 102.794 494.912 104.034C491.817 105.274 488.344 105.895 484.486 105.895C479.099 105.895 474.386 104.729 470.347 102.392C466.307 100.057 463.194 96.6625 461.009 92.2098C458.825 87.7582 457.732 82.5028 457.732 76.4433C457.732 70.2401 458.917 64.8017 461.283 60.1296C463.649 55.4593 466.907 51.8634 471.054 49.3452C475.204 46.8267 479.899 45.5678 485.142 45.5678C491.765 45.5678 497.041 47.5027 500.973 51.3707C504.905 55.2402 506.871 60.6051 506.871 67.4654C506.871 70.6782 506.36 73.2134 505.342 75.0749C504.32 76.9359 502.502 77.8667 499.881 77.8667H476.297C476.733 88.4509 481.247 93.7423 489.836 93.7423C494.424 93.7423 498.682 92.2833 502.614 89.3631Z" fill="#03AB6F"/>
<path d="M534.931 56.6305V87.506C534.931 89.6956 535.368 91.2114 536.242 92.0497C537.116 92.8898 538.352 93.3089 539.955 93.3089C541.336 93.3089 542.795 92.9444 544.32 92.2141C545.85 91.485 547.053 90.5717 547.927 89.4766C548.652 90.0616 549.182 90.9378 549.508 92.1046C549.837 93.2729 550 94.3317 550 95.2795C550 96.9594 549.415 98.6018 548.252 100.206C547.086 101.813 545.339 103.127 543.01 104.148C540.681 105.169 537.878 105.681 534.605 105.681C529.507 105.681 525.412 104.222 522.321 101.302C519.226 98.3828 517.678 93.528 517.678 86.7394V56.6305H510.799V49.9517C512.691 49.6607 514.531 48.4378 516.315 46.2838C518.096 44.1317 519.625 41.4305 520.899 38.1817C522.173 34.9348 522.991 31.7049 523.357 28.4918C524.668 28.2731 525.868 28.1636 526.96 28.1636C529.581 28.1636 531.529 28.9128 532.802 30.4082C534.076 31.905 534.713 33.566 534.713 35.3899V46.886H547.379C547.379 49.0756 547.271 50.956 547.053 52.5245C546.834 54.0952 546.361 55.4636 545.631 56.6305H534.931Z" fill="#03AB6F"/>
<path d="M123.844 96.4662C115.618 91.8935 111.722 85.2816 110.424 76.6572C109.91 73.2439 107.914 62.4737 117.5 57.6749C122.35 55.2469 128.607 56.3206 132.837 61.4802C137.745 67.4662 136.938 74.2396 140.314 78.6493C146.434 86.6418 156.769 86.8464 167.065 85.7869V80.422C167.065 36.0063 131.156 0.000167847 86.8608 0.000167847V100.133C86.8608 113.838 97.9404 124.947 111.608 124.947H134.069C150.029 124.947 163.342 113.585 166.402 98.488C160.015 99.1031 153.707 99.7254 146.303 100.255C139.198 100.763 130.075 99.9292 123.844 96.4662Z" fill="#F7C34D"/>
<path d="M0 80.422V85.7869C10.2957 86.8464 20.6311 86.6418 26.7508 78.6493C30.1274 74.2396 29.3199 67.4662 34.2283 61.4802C38.459 56.3206 44.7154 55.2469 49.5649 57.6749C59.1508 62.4737 57.1552 73.2439 56.6417 76.6572C55.3432 85.2816 51.4468 91.8935 43.2207 96.4662C36.9906 99.9292 27.8671 100.763 20.7621 100.255C13.358 99.7254 7.05018 99.1031 0.662737 98.488C3.72354 113.585 17.036 124.947 32.9957 124.947H55.4576C69.1248 124.947 80.2043 113.838 80.2043 100.133V0.000167847C35.9088 0.000167847 0 36.0063 0 80.422Z" fill="#EF473F"/>
</svg>
