<svg width="127" height="127" viewBox="0 0 127 127" fill="none" xmlns="http://www.w3.org/2000/svg">
<g clip-path="url(#clip0_18_19)">
<path d="M38.4036 48.3195L62.5237 34.3932C62.82 34.2214 63.1565 34.1309 63.499 34.1309C63.8415 34.1309 64.178 34.2214 64.4743 34.3932L88.5964 48.3195C89.1996 48.6688 89.5727 49.3117 89.5727 50.0102V77.8669C89.5727 78.5614 89.1996 79.2083 88.5964 79.5576L64.4724 93.4641C64.176 93.6358 63.8396 93.7263 63.497 93.7263C63.1545 93.7263 62.818 93.6358 62.5217 93.4641L38.4036 79.5734C37.8004 79.2242 37.4273 78.5812 37.4273 77.8827V50.0122C37.4273 49.3177 37.8004 48.6688 38.4036 48.3195Z" fill="#8080F2"/>
<path d="M126.214 61.0076L97.3933 10.8704C96.3475 9.0567 94.4167 7.73907 92.3212 7.73907H34.6811C32.5876 7.73907 30.6528 9.07654 29.607 10.8883L0.785978 60.9203C0.27082 61.8206 -0.000183105 62.8398 -0.000183105 63.877C-0.000183105 64.9143 0.27082 65.9335 0.785978 66.8338L29.607 116.542C30.6548 118.356 32.5876 119.281 34.6811 119.281H92.3212C94.4147 119.281 96.3495 118.382 97.3953 116.568L126.214 66.7603C126.729 65.8894 127 64.8964 127 63.885C127 62.8735 126.729 61.8806 126.214 61.0096M102.35 85.1198C102.35 85.854 101.906 86.5386 101.267 86.9057L64.5559 108.085C64.2398 108.267 63.8816 108.362 63.517 108.362C63.1524 108.362 62.7943 108.267 62.4782 108.085L25.7415 86.9057C25.1025 86.5366 24.656 85.854 24.656 85.1198V42.7573C24.665 42.3915 24.7694 42.0343 24.9587 41.7211C25.148 41.4078 25.4158 41.1495 25.7355 40.9714L62.4465 19.7922C62.7623 19.6108 63.1201 19.5153 63.4843 19.5153C63.8485 19.5153 64.2063 19.6108 64.5221 19.7922L101.263 40.9694C101.902 41.3385 102.354 42.0211 102.354 42.7554L102.35 85.1198Z" fill="#4B32C3"/>
</g>
<defs>
<clipPath id="clip0_18_19">
<rect width="127" height="127" fill="white"/>
</clipPath>
</defs>
</svg>
