<svg width="127" height="128" viewBox="0 0 127 128" fill="none" xmlns="http://www.w3.org/2000/svg">
<g clip-path="url(#clip0_11_9)">
<path fill-rule="evenodd" clip-rule="evenodd" d="M98.8442 5.38613C105.15 5.38613 110.86 7.97591 114.993 12.1613C119.125 16.3466 121.682 22.1301 121.682 28.5167V99.4832C121.682 105.871 119.126 111.653 114.993 115.839C112.875 117.99 110.358 119.696 107.586 120.859C104.815 122.022 101.844 122.618 98.8442 122.614H28.1558C21.8496 122.614 16.1403 120.024 12.0074 115.839C7.87463 111.653 5.31773 105.87 5.31773 99.4832V28.5167C5.31773 22.1294 7.874 16.3466 12.0068 12.1606C14.1252 10.0095 16.6425 8.30365 19.4139 7.14105C22.1852 5.97846 25.1562 5.38206 28.1558 5.38613H98.8442Z" fill="#EC5990" stroke="white" stroke-width="17"/>
<path fill-rule="evenodd" clip-rule="evenodd" d="M83.4478 32.6996H70.3924C69.4352 29.6795 66.6506 27.6296 63.505 27.6296C60.3594 27.6296 57.5748 29.6795 56.6176 32.6996H43.5529C38.409 32.6996 34.2393 36.902 34.2393 42.086V90.9903C34.2393 96.1743 38.409 100.377 43.5529 100.377H83.4478C88.5916 100.377 92.7613 96.1743 92.7613 90.9903V42.086C92.7613 36.902 88.5916 32.6996 83.4478 32.6996ZM57.2689 34.406C57.4654 34.411 57.6574 34.3464 57.8119 34.2233C57.9664 34.1002 58.0737 33.9264 58.1153 33.7318C58.6696 31.168 60.9218 29.3393 63.5256 29.3393C66.1295 29.3393 68.3817 31.1674 68.936 33.7318C68.9776 33.9264 69.0848 34.1002 69.2394 34.2233C69.3939 34.3464 69.5859 34.411 69.7824 34.406H74.3375V39.9956C74.3375 41.4093 73.2002 42.5556 71.7975 42.5556H55.245C53.8424 42.5556 52.705 41.4093 52.705 39.9956V34.406H57.2689ZM91.0678 90.9903C91.0678 95.232 87.6563 98.6703 83.4478 98.6703H43.5529C39.3443 98.6703 35.9329 95.232 35.9329 90.9903V42.086C35.9329 37.8443 39.3443 34.406 43.5529 34.406H51.0121V39.9956C51.0121 42.3522 52.9077 44.262 55.2456 44.262H71.7556C74.0935 44.262 75.9892 42.3515 75.9892 39.9956V34.406H83.4484C87.6569 34.406 91.0684 37.8443 91.0684 42.086L91.0678 90.9903ZM81.788 60.5865H66.8865C66.7755 60.5862 66.6657 60.6081 66.5631 60.6509C66.4605 60.6936 66.3673 60.7564 66.2887 60.8357C66.2101 60.9149 66.1477 61.0091 66.105 61.1128C66.0623 61.2165 66.0402 61.3277 66.04 61.44C66.0402 61.5524 66.0623 61.6635 66.105 61.7672C66.1477 61.8709 66.2101 61.9651 66.2887 62.0444C66.3673 62.1236 66.4605 62.1864 66.5631 62.2292C66.6657 62.2719 66.7755 62.2938 66.8865 62.2936H81.788C81.8989 62.2938 82.0088 62.2719 82.1113 62.2292C82.2139 62.1864 82.3072 62.1236 82.3858 62.0444C82.4644 61.9651 82.5268 61.8709 82.5694 61.7672C82.6121 61.6635 82.6342 61.5524 82.6345 61.44C82.6342 61.3277 82.6121 61.2165 82.5694 61.1128C82.5268 61.0091 82.4644 60.9149 82.3858 60.8357C82.3072 60.7564 82.2139 60.6936 82.1113 60.6509C82.0088 60.6081 81.8989 60.5862 81.788 60.5865ZM59.7751 60.5865H44.8735C44.7626 60.5862 44.6528 60.6081 44.5502 60.6509C44.4476 60.6936 44.3544 60.7564 44.2758 60.8357C44.1972 60.9149 44.1348 61.0091 44.0921 61.1128C44.0494 61.2165 44.0273 61.3277 44.0271 61.44C44.0273 61.5524 44.0494 61.6635 44.0921 61.7672C44.1348 61.8709 44.1972 61.9651 44.2758 62.0444C44.3544 62.1236 44.4476 62.1864 44.5502 62.2292C44.6528 62.2719 44.7626 62.2938 44.8735 62.2936H59.7751C59.886 62.2938 59.9959 62.2719 60.0984 62.2292C60.201 62.1864 60.2942 62.1236 60.3728 62.0444C60.4514 61.9651 60.5139 61.8709 60.5565 61.7672C60.5992 61.6635 60.6213 61.5524 60.6215 61.44C60.6213 61.3277 60.5992 61.2165 60.5565 61.1128C60.5139 61.0091 60.4514 60.9149 60.3728 60.8357C60.2942 60.7564 60.201 60.6936 60.0984 60.6509C59.9959 60.6081 59.886 60.5862 59.7751 60.5865ZM81.8305 81.2369H66.8871C66.7762 81.2367 66.6663 81.2586 66.5637 81.3013C66.4612 81.3441 66.3679 81.4069 66.2893 81.4861C66.2107 81.5654 66.1483 81.6596 66.1056 81.7633C66.063 81.8669 66.0409 81.9781 66.0406 82.0905C66.0409 82.2028 66.063 82.314 66.1056 82.4177C66.1483 82.5214 66.2107 82.6155 66.2893 82.6948C66.3679 82.7741 66.4612 82.8369 66.5637 82.8796C66.6663 82.9224 66.7762 82.9443 66.8871 82.944H81.8305C81.9415 82.9443 82.0513 82.9224 82.1539 82.8796C82.2565 82.8369 82.3497 82.7741 82.4283 82.6948C82.5069 82.6155 82.5693 82.5214 82.612 82.4177C82.6547 82.314 82.6768 82.2028 82.677 82.0905C82.6768 81.9781 82.6547 81.8669 82.612 81.7633C82.5693 81.6596 82.5069 81.5654 82.4283 81.4861C82.3497 81.4069 82.2565 81.3441 82.1539 81.3013C82.0513 81.2586 81.9415 81.2367 81.8305 81.2369ZM59.817 81.2369H44.8735C44.7626 81.2367 44.6528 81.2586 44.5502 81.3013C44.4476 81.3441 44.3544 81.4069 44.2758 81.4861C44.1972 81.5654 44.1348 81.6596 44.0921 81.7633C44.0494 81.8669 44.0273 81.9781 44.0271 82.0905C44.0273 82.2028 44.0494 82.314 44.0921 82.4177C44.1348 82.5214 44.1972 82.6155 44.2758 82.6948C44.3544 82.7741 44.4476 82.8369 44.5502 82.8796C44.6528 82.9224 44.7626 82.9443 44.8735 82.944H59.817C59.9279 82.9443 60.0378 82.9224 60.1403 82.8796C60.2429 82.8369 60.3362 82.7741 60.4148 82.6948C60.4934 82.6155 60.5558 82.5214 60.5984 82.4177C60.6411 82.314 60.6632 82.2028 60.6635 82.0905C60.6632 81.9781 60.6411 81.8669 60.5984 81.7633C60.5558 81.6596 60.4934 81.5654 60.4148 81.4861C60.3362 81.4069 60.2429 81.3441 60.1403 81.3013C60.0378 81.2586 59.9279 81.2367 59.817 81.2369Z" fill="white"/>
</g>
<defs>
<clipPath id="clip0_11_9">
<rect width="127" height="128" fill="white"/>
</clipPath>
</defs>
</svg>
